<svg width="128" height="113" viewBox="0 0 128 113" fill="none" xmlns="http://www.w3.org/2000/svg">
<g filter="url(#filter0_i_18_249)">
<path fill-rule="evenodd" clip-rule="evenodd" d="M87.3023 61.5297H39.8434V61.3848C29.2338 60.1472 21 51.1284 21 40.1865C21 30.0284 28.0965 21.5277 37.6024 19.3718C41.0674 8.15208 51.521 0 63.8785 0C77.8235 0 89.3439 10.3811 91.1332 23.8368C99.8274 25.5964 106.372 33.2809 106.372 42.494C106.372 52.943 97.9536 61.4256 87.5289 61.5288V61.5297H87.3712C87.3597 61.5297 87.3482 61.5297 87.3367 61.5297C87.3253 61.5297 87.3138 61.5297 87.3023 61.5297Z" fill="url(#paint0_linear_18_249)"/>
</g>
<g filter="url(#filter1_f_18_249)">
<ellipse cx="63.7308" cy="67.0852" rx="23.7308" ry="5.08517" fill="#1B66D7"/>
</g>
<defs>
<filter id="filter0_i_18_249" x="21" y="0" width="85.3725" height="65.5297" filterUnits="userSpaceOnUse" color-interpolation-filters="sRGB">
<feFlood flood-opacity="0" result="BackgroundImageFix"/>
<feBlend mode="normal" in="SourceGraphic" in2="BackgroundImageFix" result="shape"/>
<feColorMatrix in="SourceAlpha" type="matrix" values="0 0 0 0 0 0 0 0 0 0 0 0 0 0 0 0 0 0 127 0" result="hardAlpha"/>
<feOffset dy="4"/>
<feGaussianBlur stdDeviation="15"/>
<feComposite in2="hardAlpha" operator="arithmetic" k2="-1" k3="1"/>
<feColorMatrix type="matrix" values="0 0 0 0 1 0 0 0 0 1 0 0 0 0 1 0 0 0 1 0"/>
<feBlend mode="normal" in2="shape" result="effect1_innerShadow_18_249"/>
</filter>
<filter id="filter1_f_18_249" x="0" y="22" width="127.462" height="90.1703" filterUnits="userSpaceOnUse" color-interpolation-filters="sRGB">
<feFlood flood-opacity="0" result="BackgroundImageFix"/>
<feBlend mode="normal" in="SourceGraphic" in2="BackgroundImageFix" result="shape"/>
<feGaussianBlur stdDeviation="20" result="effect1_foregroundBlur_18_249"/>
</filter>
<linearGradient id="paint0_linear_18_249" x1="53.1158" y1="7.8984" x2="81.3803" y2="109.337" gradientUnits="userSpaceOnUse">
<stop stop-color="white" stop-opacity="0.1"/>
<stop offset="1" stop-color="#94B8D1" stop-opacity="0.23"/>
</linearGradient>
</defs>
</svg>
