<svg width="86" height="62" viewBox="0 0 86 62" fill="none" xmlns="http://www.w3.org/2000/svg">
<g filter="url(#filter0_i_18_101)">
<path fill-rule="evenodd" clip-rule="evenodd" d="M66.3023 61.5297H18.8434V61.3848C8.2338 60.1472 0 51.1284 0 40.1865C0 30.0284 7.09655 21.5277 16.6024 19.3718C20.0674 8.15208 30.521 0 42.8785 0C56.8235 0 68.3439 10.3811 70.1332 23.8368C78.8274 25.5964 85.3725 33.2809 85.3725 42.494C85.3725 52.943 76.9536 61.4256 66.5289 61.5288V61.5297H66.3712C66.3597 61.5297 66.3482 61.5297 66.3367 61.5297C66.3253 61.5297 66.3138 61.5297 66.3023 61.5297Z" fill="url(#paint0_linear_18_101)"/>
</g>
<defs>
<filter id="filter0_i_18_101" x="0" y="0" width="85.3725" height="65.5297" filterUnits="userSpaceOnUse" color-interpolation-filters="sRGB">
<feFlood flood-opacity="0" result="BackgroundImageFix"/>
<feBlend mode="normal" in="SourceGraphic" in2="BackgroundImageFix" result="shape"/>
<feColorMatrix in="SourceAlpha" type="matrix" values="0 0 0 0 0 0 0 0 0 0 0 0 0 0 0 0 0 0 127 0" result="hardAlpha"/>
<feOffset dy="4"/>
<feGaussianBlur stdDeviation="15"/>
<feComposite in2="hardAlpha" operator="arithmetic" k2="-1" k3="1"/>
<feColorMatrix type="matrix" values="0 0 0 0 1 0 0 0 0 1 0 0 0 0 1 0 0 0 1 0"/>
<feBlend mode="normal" in2="shape" result="effect1_innerShadow_18_101"/>
</filter>
<linearGradient id="paint0_linear_18_101" x1="32.1158" y1="7.8984" x2="60.3803" y2="109.337" gradientUnits="userSpaceOnUse">
<stop stop-color="white" stop-opacity="0.1"/>
<stop offset="1" stop-color="#94B8D1" stop-opacity="0.23"/>
</linearGradient>
</defs>
</svg>
