<svg width="121" height="83" viewBox="0 0 121 83" fill="none" xmlns="http://www.w3.org/2000/svg">
<g filter="url(#filter0_f_22_26)">
<ellipse cx="60.5" cy="57" rx="40.5" ry="6" fill="#779DD4"/>
<path d="M100.5 57C100.5 57.1698 100.381 57.4441 99.884 57.8042C99.4014 58.1536 98.6578 58.5113 97.652 58.8636C95.6467 59.566 92.7174 60.2069 89.0646 60.748C81.7665 61.8292 71.6671 62.5 60.5 62.5C49.3329 62.5 39.2335 61.8292 31.9354 60.748C28.2826 60.2069 25.3533 59.566 23.348 58.8636C22.3422 58.5113 21.5986 58.1536 21.116 57.8042C20.6187 57.4441 20.5 57.1698 20.5 57C20.5 56.8302 20.6187 56.5559 21.116 56.1958C21.5986 55.8464 22.3422 55.4887 23.348 55.1364C25.3533 54.434 28.2826 53.7931 31.9354 53.252C39.2335 52.1708 49.3329 51.5 60.5 51.5C71.6671 51.5 81.7665 52.1708 89.0646 53.252C92.7174 53.7931 95.6467 54.434 97.652 55.1364C98.6578 55.4887 99.4014 55.8464 99.884 56.1958C100.381 56.5559 100.5 56.8302 100.5 57Z" stroke="black"/>
</g>
<g filter="url(#filter1_i_22_26)">
<path fill-rule="evenodd" clip-rule="evenodd" d="M97.955 51H58.6187V50.8799C49.8247 49.854 43 42.3787 43 33.3093C43 24.8896 48.8821 17.8437 56.7612 16.0567C59.6333 6.757 68.2978 0 78.5406 0C90.0992 0 99.648 8.60455 101.131 19.7576C108.337 21.2161 113.763 27.5854 113.763 35.2219C113.763 43.8827 106.784 50.9137 98.1437 50.9992V51H98.0137C98.004 51 97.9942 51 97.9844 51C97.9746 51 97.9648 51 97.955 51Z" fill="url(#paint0_linear_22_26)"/>
</g>
<g filter="url(#filter2_i_22_26)">
<path fill-rule="evenodd" clip-rule="evenodd" d="M62.955 57H23.6187V56.8799C14.8247 55.854 8 48.3787 8 39.3093C8 30.8896 13.8821 23.8437 21.7612 22.0567C24.6333 12.757 33.2978 6 43.5406 6C55.0992 6 64.648 14.6045 66.1312 25.7576C73.3375 27.2161 78.7625 33.5854 78.7625 41.2219C78.7625 49.8827 71.7843 56.9137 63.1437 56.9992V57H63.0137C63.004 57 62.9942 57 62.9844 57C62.9746 57 62.9648 57 62.955 57Z" fill="url(#paint1_linear_22_26)"/>
</g>
<defs>
<filter id="filter0_f_22_26" x="0" y="31" width="121" height="52" filterUnits="userSpaceOnUse" color-interpolation-filters="sRGB">
<feFlood flood-opacity="0" result="BackgroundImageFix"/>
<feBlend mode="normal" in="SourceGraphic" in2="BackgroundImageFix" result="shape"/>
<feGaussianBlur stdDeviation="10" result="effect1_foregroundBlur_22_26"/>
</filter>
<filter id="filter1_i_22_26" x="43" y="0" width="70.7625" height="55" filterUnits="userSpaceOnUse" color-interpolation-filters="sRGB">
<feFlood flood-opacity="0" result="BackgroundImageFix"/>
<feBlend mode="normal" in="SourceGraphic" in2="BackgroundImageFix" result="shape"/>
<feColorMatrix in="SourceAlpha" type="matrix" values="0 0 0 0 0 0 0 0 0 0 0 0 0 0 0 0 0 0 127 0" result="hardAlpha"/>
<feOffset dy="4"/>
<feGaussianBlur stdDeviation="15"/>
<feComposite in2="hardAlpha" operator="arithmetic" k2="-1" k3="1"/>
<feColorMatrix type="matrix" values="0 0 0 0 1 0 0 0 0 1 0 0 0 0 1 0 0 0 1 0"/>
<feBlend mode="normal" in2="shape" result="effect1_innerShadow_22_26"/>
</filter>
<filter id="filter2_i_22_26" x="8" y="6" width="70.7625" height="55" filterUnits="userSpaceOnUse" color-interpolation-filters="sRGB">
<feFlood flood-opacity="0" result="BackgroundImageFix"/>
<feBlend mode="normal" in="SourceGraphic" in2="BackgroundImageFix" result="shape"/>
<feColorMatrix in="SourceAlpha" type="matrix" values="0 0 0 0 0 0 0 0 0 0 0 0 0 0 0 0 0 0 127 0" result="hardAlpha"/>
<feOffset dy="4"/>
<feGaussianBlur stdDeviation="15"/>
<feComposite in2="hardAlpha" operator="arithmetic" k2="-1" k3="1"/>
<feColorMatrix type="matrix" values="0 0 0 0 1 0 0 0 0 1 0 0 0 0 1 0 0 0 1 0"/>
<feBlend mode="normal" in2="shape" result="effect1_innerShadow_22_26"/>
</filter>
<linearGradient id="paint0_linear_22_26" x1="69.6197" y1="6.54673" x2="93.0473" y2="90.6261" gradientUnits="userSpaceOnUse">
<stop stop-color="white" stop-opacity="0.1"/>
<stop offset="1" stop-color="#94B8D1" stop-opacity="0.23"/>
</linearGradient>
<linearGradient id="paint1_linear_22_26" x1="34.6197" y1="12.5467" x2="58.0473" y2="96.6261" gradientUnits="userSpaceOnUse">
<stop stop-color="white" stop-opacity="0.1"/>
<stop offset="1" stop-color="#94B8D1" stop-opacity="0.23"/>
</linearGradient>
</defs>
</svg>
