<svg width="140" height="132" viewBox="0 0 140 132" fill="none" xmlns="http://www.w3.org/2000/svg">
<g filter="url(#filter0_d_18_412)">
<path d="M27.0933 68.9851H23.5246L21.3926 82.1124L25.0013 80.5322L21.3926 93.0517L28.0777 77.8582L24.2629 78.5875L27.0933 68.9851Z" fill="url(#paint0_linear_18_412)" shape-rendering="crispEdges"/>
<path d="M27.0933 68.9851H23.5246L21.3926 82.1124L25.0013 80.5322L21.3926 93.0517L28.0777 77.8582L24.2629 78.5875L27.0933 68.9851Z" stroke="#D8C5C5" stroke-opacity="0.05" stroke-width="0.5" stroke-linejoin="round" shape-rendering="crispEdges"/>
</g>
<g filter="url(#filter1_d_18_412)">
<path d="M68.1476 67.6481H63.1514L60.1666 85.8804L65.2188 83.6857L60.1666 101.074L69.5258 79.9718L64.1851 80.9847L68.1476 67.6481Z" fill="url(#paint1_linear_18_412)" shape-rendering="crispEdges"/>
<path d="M68.1476 67.6481H63.1514L60.1666 85.8804L65.2188 83.6857L60.1666 101.074L69.5258 79.9718L64.1851 80.9847L68.1476 67.6481Z" stroke="#D8C5C5" stroke-opacity="0.05" stroke-width="0.5" stroke-linejoin="round" shape-rendering="crispEdges"/>
</g>
<g filter="url(#filter2_d_18_412)">
<path d="M41.8006 87.7036H38.232L36.0999 100.831L39.7086 99.2507L36.0999 111.77L42.7851 96.5767L38.9703 97.306L41.8006 87.7036Z" fill="url(#paint2_linear_18_412)" shape-rendering="crispEdges"/>
<path d="M41.8006 87.7036H38.232L36.0999 100.831L39.7086 99.2507L36.0999 111.77L42.7851 96.5767L38.9703 97.306L41.8006 87.7036Z" stroke="#D8C5C5" stroke-opacity="0.05" stroke-width="0.5" stroke-linejoin="round" shape-rendering="crispEdges"/>
</g>
<g filter="url(#filter3_d_18_412)">
<path d="M107.701 58H104.132L102 71.1273L105.609 69.5471L102 82.0666L108.685 66.8731L104.87 67.6023L107.701 58Z" fill="url(#paint3_linear_18_412)" shape-rendering="crispEdges"/>
<path d="M107.701 58H104.132L102 71.1273L105.609 69.5471L102 82.0666L108.685 66.8731L104.87 67.6023L107.701 58Z" stroke="#D8C5C5" stroke-opacity="0.05" stroke-width="0.5" stroke-linejoin="round" shape-rendering="crispEdges"/>
</g>
<g filter="url(#filter4_i_18_412)">
<path fill-rule="evenodd" clip-rule="evenodd" d="M62.7798 69.2305H20.2268C20.2174 69.2305 20.2081 69.2306 20.1987 69.2306C20.1894 69.2306 20.18 69.2305 20.1707 69.2305H17.8331V69.0935C7.79231 67.9222 0 59.387 0 49.0318C0 39.4183 6.71604 31.3735 15.7122 29.3332C18.9914 18.715 28.8845 11 40.5794 11C53.7767 11 64.6794 20.8245 66.3728 33.5587C74.6007 35.224 80.7949 42.4964 80.7949 51.2155C80.7949 61.1042 72.8274 69.132 62.9617 69.2296V69.2305H62.7798Z" fill="url(#paint4_linear_18_412)"/>
</g>
<g filter="url(#filter5_i_18_412)">
<path fill-rule="evenodd" clip-rule="evenodd" d="M119.78 58.2305H77.2268C77.2174 58.2305 77.2081 58.2306 77.1987 58.2306C77.1894 58.2306 77.18 58.2305 77.1707 58.2305H74.8331V58.0935C64.7923 56.9222 57 48.387 57 38.0318C57 28.4183 63.716 20.3735 72.7122 18.3332C75.9914 7.715 85.8845 0 97.5794 0C110.777 0 121.679 9.82445 123.373 22.5587C131.601 24.224 137.795 31.4964 137.795 40.2155C137.795 50.1042 129.827 58.132 119.962 58.2296V58.2305H119.78Z" fill="url(#paint5_linear_18_412)"/>
</g>
<g filter="url(#filter6_d_18_412)">
<rect x="53.4814" y="59.6259" width="2.67407" height="20.0555" rx="1.33704" fill="url(#paint6_linear_18_412)" shape-rendering="crispEdges"/>
</g>
<g filter="url(#filter7_f_18_412)">
<ellipse cx="41.4481" cy="71.6592" rx="18.7185" ry="4.01111" fill="#1765DB"/>
</g>
<g filter="url(#filter8_f_18_412)">
<ellipse cx="100.718" cy="64.0111" rx="18.7185" ry="4.01111" fill="#1765DB"/>
</g>
<defs>
<filter id="filter0_d_18_412" x="6.14252" y="57.7351" width="37.1852" height="54.5667" filterUnits="userSpaceOnUse" color-interpolation-filters="sRGB">
<feFlood flood-opacity="0" result="BackgroundImageFix"/>
<feColorMatrix in="SourceAlpha" type="matrix" values="0 0 0 0 0 0 0 0 0 0 0 0 0 0 0 0 0 0 127 0" result="hardAlpha"/>
<feOffset dy="4"/>
<feGaussianBlur stdDeviation="7.5"/>
<feComposite in2="hardAlpha" operator="out"/>
<feColorMatrix type="matrix" values="0 0 0 0 1 0 0 0 0 0.847667 0 0 0 0 0.307576 0 0 0 1 0"/>
<feBlend mode="normal" in2="BackgroundImageFix" result="effect1_dropShadow_18_412"/>
<feBlend mode="normal" in="SourceGraphic" in2="effect1_dropShadow_18_412" result="shape"/>
</filter>
<filter id="filter1_d_18_412" x="44.9165" y="56.3981" width="39.8593" height="63.9259" filterUnits="userSpaceOnUse" color-interpolation-filters="sRGB">
<feFlood flood-opacity="0" result="BackgroundImageFix"/>
<feColorMatrix in="SourceAlpha" type="matrix" values="0 0 0 0 0 0 0 0 0 0 0 0 0 0 0 0 0 0 127 0" result="hardAlpha"/>
<feOffset dy="4"/>
<feGaussianBlur stdDeviation="7.5"/>
<feComposite in2="hardAlpha" operator="out"/>
<feColorMatrix type="matrix" values="0 0 0 0 1 0 0 0 0 0.847667 0 0 0 0 0.307576 0 0 0 1 0"/>
<feBlend mode="normal" in2="BackgroundImageFix" result="effect1_dropShadow_18_412"/>
<feBlend mode="normal" in="SourceGraphic" in2="effect1_dropShadow_18_412" result="shape"/>
</filter>
<filter id="filter2_d_18_412" x="20.8499" y="76.4536" width="37.1852" height="54.5667" filterUnits="userSpaceOnUse" color-interpolation-filters="sRGB">
<feFlood flood-opacity="0" result="BackgroundImageFix"/>
<feColorMatrix in="SourceAlpha" type="matrix" values="0 0 0 0 0 0 0 0 0 0 0 0 0 0 0 0 0 0 127 0" result="hardAlpha"/>
<feOffset dy="4"/>
<feGaussianBlur stdDeviation="7.5"/>
<feComposite in2="hardAlpha" operator="out"/>
<feColorMatrix type="matrix" values="0 0 0 0 1 0 0 0 0 0.847667 0 0 0 0 0.307576 0 0 0 1 0"/>
<feBlend mode="normal" in2="BackgroundImageFix" result="effect1_dropShadow_18_412"/>
<feBlend mode="normal" in="SourceGraphic" in2="effect1_dropShadow_18_412" result="shape"/>
</filter>
<filter id="filter3_d_18_412" x="86.75" y="46.75" width="37.1852" height="54.5667" filterUnits="userSpaceOnUse" color-interpolation-filters="sRGB">
<feFlood flood-opacity="0" result="BackgroundImageFix"/>
<feColorMatrix in="SourceAlpha" type="matrix" values="0 0 0 0 0 0 0 0 0 0 0 0 0 0 0 0 0 0 127 0" result="hardAlpha"/>
<feOffset dy="4"/>
<feGaussianBlur stdDeviation="7.5"/>
<feComposite in2="hardAlpha" operator="out"/>
<feColorMatrix type="matrix" values="0 0 0 0 1 0 0 0 0 0.847667 0 0 0 0 0.307576 0 0 0 1 0"/>
<feBlend mode="normal" in2="BackgroundImageFix" result="effect1_dropShadow_18_412"/>
<feBlend mode="normal" in="SourceGraphic" in2="effect1_dropShadow_18_412" result="shape"/>
</filter>
<filter id="filter4_i_18_412" x="0" y="11" width="80.7949" height="62.2305" filterUnits="userSpaceOnUse" color-interpolation-filters="sRGB">
<feFlood flood-opacity="0" result="BackgroundImageFix"/>
<feBlend mode="normal" in="SourceGraphic" in2="BackgroundImageFix" result="shape"/>
<feColorMatrix in="SourceAlpha" type="matrix" values="0 0 0 0 0 0 0 0 0 0 0 0 0 0 0 0 0 0 127 0" result="hardAlpha"/>
<feOffset dy="4"/>
<feGaussianBlur stdDeviation="15"/>
<feComposite in2="hardAlpha" operator="arithmetic" k2="-1" k3="1"/>
<feColorMatrix type="matrix" values="0 0 0 0 1 0 0 0 0 1 0 0 0 0 1 0 0 0 1 0"/>
<feBlend mode="normal" in2="shape" result="effect1_innerShadow_18_412"/>
</filter>
<filter id="filter5_i_18_412" x="57" y="0" width="80.7949" height="62.2305" filterUnits="userSpaceOnUse" color-interpolation-filters="sRGB">
<feFlood flood-opacity="0" result="BackgroundImageFix"/>
<feBlend mode="normal" in="SourceGraphic" in2="BackgroundImageFix" result="shape"/>
<feColorMatrix in="SourceAlpha" type="matrix" values="0 0 0 0 0 0 0 0 0 0 0 0 0 0 0 0 0 0 127 0" result="hardAlpha"/>
<feOffset dy="4"/>
<feGaussianBlur stdDeviation="15"/>
<feComposite in2="hardAlpha" operator="arithmetic" k2="-1" k3="1"/>
<feColorMatrix type="matrix" values="0 0 0 0 1 0 0 0 0 1 0 0 0 0 1 0 0 0 1 0"/>
<feBlend mode="normal" in2="shape" result="effect1_innerShadow_18_412"/>
</filter>
<filter id="filter6_d_18_412" x="14.4814" y="24.6259" width="80.6741" height="98.0555" filterUnits="userSpaceOnUse" color-interpolation-filters="sRGB">
<feFlood flood-opacity="0" result="BackgroundImageFix"/>
<feColorMatrix in="SourceAlpha" type="matrix" values="0 0 0 0 0 0 0 0 0 0 0 0 0 0 0 0 0 0 127 0" result="hardAlpha"/>
<feOffset dy="4"/>
<feGaussianBlur stdDeviation="19.5"/>
<feComposite in2="hardAlpha" operator="out"/>
<feColorMatrix type="matrix" values="0 0 0 0 0.486439 0 0 0 0 0.594549 0 0 0 0 0.721461 0 0 0 0.62 0"/>
<feBlend mode="normal" in2="BackgroundImageFix" result="effect1_dropShadow_18_412"/>
<feBlend mode="normal" in="SourceGraphic" in2="effect1_dropShadow_18_412" result="shape"/>
</filter>
<filter id="filter7_f_18_412" x="2.7296" y="47.6481" width="77.437" height="48.0222" filterUnits="userSpaceOnUse" color-interpolation-filters="sRGB">
<feFlood flood-opacity="0" result="BackgroundImageFix"/>
<feBlend mode="normal" in="SourceGraphic" in2="BackgroundImageFix" result="shape"/>
<feGaussianBlur stdDeviation="10" result="effect1_foregroundBlur_18_412"/>
</filter>
<filter id="filter8_f_18_412" x="62" y="40" width="77.437" height="48.0222" filterUnits="userSpaceOnUse" color-interpolation-filters="sRGB">
<feFlood flood-opacity="0" result="BackgroundImageFix"/>
<feBlend mode="normal" in="SourceGraphic" in2="BackgroundImageFix" result="shape"/>
<feGaussianBlur stdDeviation="10" result="effect1_foregroundBlur_18_412"/>
</filter>
<linearGradient id="paint0_linear_18_412" x1="24.7352" y1="68.9851" x2="25.5465" y2="93.0494" gradientUnits="userSpaceOnUse">
<stop stop-color="#FFE604"/>
<stop offset="0.815689" stop-color="#FA8B25" stop-opacity="0.85"/>
</linearGradient>
<linearGradient id="paint1_linear_18_412" x1="64.8462" y1="67.6481" x2="65.9641" y2="101.071" gradientUnits="userSpaceOnUse">
<stop stop-color="#FFE604"/>
<stop offset="0.815689" stop-color="#FA8B25" stop-opacity="0.85"/>
</linearGradient>
<linearGradient id="paint2_linear_18_412" x1="39.4425" y1="87.7036" x2="40.2538" y2="111.768" gradientUnits="userSpaceOnUse">
<stop stop-color="#FFE604"/>
<stop offset="0.815689" stop-color="#FA8B25" stop-opacity="0.85"/>
</linearGradient>
<linearGradient id="paint3_linear_18_412" x1="105.343" y1="58" x2="106.154" y2="82.0643" gradientUnits="userSpaceOnUse">
<stop stop-color="#FFE604"/>
<stop offset="0.815689" stop-color="#FA8B25" stop-opacity="0.85"/>
</linearGradient>
<linearGradient id="paint4_linear_18_412" x1="30.3938" y1="18.4749" x2="57.1428" y2="114.475" gradientUnits="userSpaceOnUse">
<stop stop-color="white" stop-opacity="0.1"/>
<stop offset="1" stop-color="#94B8D1" stop-opacity="0.23"/>
</linearGradient>
<linearGradient id="paint5_linear_18_412" x1="87.3938" y1="7.47489" x2="114.143" y2="103.475" gradientUnits="userSpaceOnUse">
<stop stop-color="white" stop-opacity="0.1"/>
<stop offset="1" stop-color="#94B8D1" stop-opacity="0.23"/>
</linearGradient>
<linearGradient id="paint6_linear_18_412" x1="54.8185" y1="79.6814" x2="54.8185" y2="63.5903" gradientUnits="userSpaceOnUse">
<stop stop-color="#9ECCED"/>
<stop offset="1" stop-color="white" stop-opacity="0"/>
</linearGradient>
</defs>
</svg>
