<svg width="190" height="150" viewBox="0 0 190 150" fill="none" xmlns="http://www.w3.org/2000/svg">
<g filter="url(#filter0_i_18_334)">
<path fill-rule="evenodd" clip-rule="evenodd" d="M98.5017 79.7262H59.4343C59.4245 79.7263 59.4147 79.7263 59.4049 79.7263C59.3951 79.7263 59.3852 79.7263 59.3754 79.7262H57.2319V79.6004C48.009 78.5245 40.8513 70.6845 40.8513 61.1727C40.8513 52.3423 47.0204 44.9526 55.2838 43.0785C58.296 33.3252 67.3832 26.2386 78.1256 26.2386C90.248 26.2386 100.263 35.2628 101.818 46.9599C109.376 48.4895 115.066 55.1696 115.066 63.1785C115.066 72.2618 107.747 79.6358 98.6849 79.7254V79.7262H98.5338C98.5285 79.7262 98.5231 79.7263 98.5178 79.7263C98.5124 79.7263 98.507 79.7262 98.5017 79.7262Z" fill="url(#paint0_linear_18_334)"/>
</g>
<g filter="url(#filter1_i_18_334)">
<path fill-rule="evenodd" clip-rule="evenodd" d="M57.6503 54.2803H18.583C18.5732 54.2803 18.5634 54.2803 18.5535 54.2803C18.5437 54.2803 18.5339 54.2803 18.5241 54.2803H16.3806V54.1544C7.15763 53.0785 0 45.2385 0 35.7267C0 26.8963 6.16902 19.5067 14.4325 17.6325C17.4446 7.87921 26.5318 0.792603 37.2742 0.792603C49.3966 0.792603 59.4113 9.81685 60.9667 21.5139C68.5245 23.0436 74.2142 29.7236 74.2142 37.7325C74.2142 46.8158 66.8956 54.1898 57.8335 54.2794V54.2803H57.6825C57.6771 54.2803 57.6718 54.2803 57.6664 54.2803C57.6611 54.2803 57.6557 54.2803 57.6503 54.2803Z" fill="url(#paint1_linear_18_334)"/>
</g>
<g filter="url(#filter2_i_18_334)">
<path fill-rule="evenodd" clip-rule="evenodd" d="M152.021 81.6667L112.984 80.3114C112.974 80.3111 112.964 80.3108 112.954 80.3104C112.945 80.3101 112.935 80.3098 112.925 80.3094L110.783 80.235L110.787 80.1092C101.607 78.714 94.7257 70.6303 95.0557 61.1243C95.3621 52.2992 101.784 45.1281 110.107 43.5418C113.456 33.8988 122.784 27.1318 133.52 27.5045C145.635 27.9251 155.33 37.2914 156.479 49.0354C163.979 50.8264 169.433 57.6998 169.156 65.7039C168.84 74.7817 161.27 81.8973 152.211 81.6725L152.211 81.6733L152.066 81.6683C152.059 81.6681 152.051 81.6678 152.044 81.6675C152.036 81.6673 152.029 81.667 152.021 81.6667Z" fill="url(#paint2_linear_18_334)"/>
</g>
<g filter="url(#filter3_f_18_334)">
<ellipse cx="78.9235" cy="83.1852" rx="17.1939" ry="3.6844" fill="#1765DB"/>
</g>
<g filter="url(#filter4_f_18_334)">
<ellipse cx="36.2578" cy="56.222" rx="17.1939" ry="3.6844" fill="#1765DB"/>
</g>
<g filter="url(#filter5_f_18_334)">
<ellipse cx="132.485" cy="79.825" rx="17.1939" ry="3.6844" fill="#1B66D7"/>
</g>
<path d="M29.8899 77.4031L30.9357 77.6492L31.4507 76.8467L31.0305 75.5149L30.0992 75.2006L29.5199 76.1036L29.8899 77.4031Z" fill="white"/>
<path d="M31.6256 80.2161L30.9357 77.6492M30.9357 77.6492L29.8899 77.4031L29.5199 76.1036L30.0992 75.2006L31.0305 75.5149L31.4507 76.8467L30.9357 77.6492Z" stroke="#A6CADE" stroke-opacity="0.73"/>
<path d="M33.0326 77.2051L33.3902 78.2183H34.3438L35.2377 77.1455L34.9993 76.192H33.9266L33.0326 77.2051Z" fill="white"/>
<path d="M31.6022 80.185L33.3902 78.2183M33.3902 78.2183L33.0326 77.2051L33.9266 76.192H34.9993L35.2377 77.1455L34.3438 78.2183H33.3902Z" stroke="#A6CADE" stroke-opacity="0.73"/>
<path d="M34.7954 79.3677L34.2591 80.2987L34.8799 81.0225L36.2762 81.0028L36.8448 80.201L36.1465 79.3867L34.7954 79.3677Z" fill="white"/>
<path d="M31.6023 80.2218L34.2591 80.2987M34.2591 80.2987L34.7954 79.3677L36.1465 79.3867L36.8448 80.201L36.2762 81.0028L34.8799 81.0225L34.2591 80.2987Z" stroke="#A6CADE" stroke-opacity="0.73"/>
<path d="M33.4161 82.8073L32.358 82.6211L31.8895 83.4517L32.3848 84.7574L33.3325 85.0181L33.8595 84.0837L33.4161 82.8073Z" fill="white"/>
<path d="M31.5231 80.0976L32.358 82.6211M32.358 82.6211L33.4161 82.8073L33.8595 84.0837L33.3325 85.0181L32.3848 84.7574L31.8895 83.4517L32.358 82.6211Z" stroke="#A6CADE" stroke-opacity="0.73"/>
<path d="M30.2898 83.1838L29.8751 82.1927L28.9231 82.247L28.0916 83.3689L28.3839 84.3073L29.4549 84.2463L30.2898 83.1838Z" fill="white"/>
<path d="M31.5482 80.1274L29.8751 82.1927M29.8751 82.1927L30.2898 83.1838L29.4549 84.2463L28.3839 84.3073L28.0916 83.3689L28.9231 82.247L29.8751 82.1927Z" stroke="#A6CADE" stroke-opacity="0.73"/>
<path d="M28.4067 81.1252L28.8892 80.1652L28.2282 79.4778L26.8353 79.577L26.3132 80.4098L27.0568 81.1831L28.4067 81.1252Z" fill="white"/>
<path d="M31.5461 80.0907L28.8892 80.1652M28.8892 80.1652L28.4067 81.1252L27.0568 81.1831L26.3132 80.4098L26.8353 79.577L28.2282 79.4778L28.8892 80.1652Z" stroke="#A6CADE" stroke-opacity="0.73"/>
<path d="M56.8899 87.4031L57.9357 87.6492L58.4507 86.8467L58.0305 85.5149L57.0992 85.2006L56.5199 86.1036L56.8899 87.4031Z" fill="white"/>
<path d="M58.6256 90.2161L57.9357 87.6492M57.9357 87.6492L56.8899 87.4031L56.5199 86.1036L57.0992 85.2006L58.0305 85.5149L58.4507 86.8467L57.9357 87.6492Z" stroke="#A6CADE" stroke-opacity="0.73"/>
<path d="M60.0326 87.2051L60.3902 88.2183H61.3438L62.2377 87.1455L61.9993 86.192H60.9266L60.0326 87.2051Z" fill="white"/>
<path d="M58.6022 90.185L60.3902 88.2183M60.3902 88.2183L60.0326 87.2051L60.9266 86.192H61.9993L62.2377 87.1455L61.3438 88.2183H60.3902Z" stroke="#A6CADE" stroke-opacity="0.73"/>
<path d="M61.7954 89.3677L61.2591 90.2987L61.8799 91.0225L63.2762 91.0028L63.8448 90.201L63.1465 89.3867L61.7954 89.3677Z" fill="white"/>
<path d="M58.6023 90.2218L61.2591 90.2987M61.2591 90.2987L61.7954 89.3677L63.1465 89.3867L63.8448 90.201L63.2762 91.0028L61.8799 91.0225L61.2591 90.2987Z" stroke="#A6CADE" stroke-opacity="0.73"/>
<path d="M60.4161 92.8073L59.358 92.6211L58.8895 93.4517L59.3848 94.7574L60.3325 95.0181L60.8595 94.0837L60.4161 92.8073Z" fill="white"/>
<path d="M58.5231 90.0976L59.358 92.6211M59.358 92.6211L60.4161 92.8073L60.8595 94.0837L60.3325 95.0181L59.3848 94.7574L58.8895 93.4517L59.358 92.6211Z" stroke="#A6CADE" stroke-opacity="0.73"/>
<path d="M57.2898 93.1838L56.8751 92.1927L55.9231 92.247L55.0916 93.3689L55.3839 94.3073L56.4549 94.2463L57.2898 93.1838Z" fill="white"/>
<path d="M58.5482 90.1274L56.8751 92.1927M56.8751 92.1927L57.2898 93.1838L56.4549 94.2463L55.3839 94.3073L55.0916 93.3689L55.9231 92.247L56.8751 92.1927Z" stroke="#A6CADE" stroke-opacity="0.73"/>
<path d="M55.4067 91.1252L55.8892 90.1652L55.2282 89.4778L53.8353 89.577L53.3132 90.4098L54.0568 91.1831L55.4067 91.1252Z" fill="white"/>
<path d="M58.5461 90.0907L55.8892 90.1652M55.8892 90.1652L55.4067 91.1252L54.0568 91.1831L53.3132 90.4098L53.8353 89.577L55.2282 89.4778L55.8892 90.1652Z" stroke="#A6CADE" stroke-opacity="0.73"/>
<path d="M99.8899 89.4031L100.936 89.6492L101.451 88.8467L101.031 87.5149L100.099 87.2006L99.5199 88.1036L99.8899 89.4031Z" fill="white"/>
<path d="M101.626 92.2161L100.936 89.6492M100.936 89.6492L99.8899 89.4031L99.5199 88.1036L100.099 87.2006L101.031 87.5149L101.451 88.8467L100.936 89.6492Z" stroke="#A6CADE" stroke-opacity="0.73"/>
<path d="M103.033 89.2051L103.39 90.2183H104.344L105.238 89.1455L104.999 88.192H103.927L103.033 89.2051Z" fill="white"/>
<path d="M101.602 92.185L103.39 90.2183M103.39 90.2183L103.033 89.2051L103.927 88.192H104.999L105.238 89.1455L104.344 90.2183H103.39Z" stroke="#A6CADE" stroke-opacity="0.73"/>
<path d="M104.795 91.3677L104.259 92.2987L104.88 93.0225L106.276 93.0028L106.845 92.201L106.146 91.3867L104.795 91.3677Z" fill="white"/>
<path d="M101.602 92.2218L104.259 92.2987M104.259 92.2987L104.795 91.3677L106.146 91.3867L106.845 92.201L106.276 93.0028L104.88 93.0225L104.259 92.2987Z" stroke="#A6CADE" stroke-opacity="0.73"/>
<path d="M103.416 94.8073L102.358 94.6211L101.89 95.4517L102.385 96.7574L103.333 97.0181L103.859 96.0837L103.416 94.8073Z" fill="white"/>
<path d="M101.523 92.0976L102.358 94.6211M102.358 94.6211L103.416 94.8073L103.859 96.0837L103.333 97.0181L102.385 96.7574L101.89 95.4517L102.358 94.6211Z" stroke="#A6CADE" stroke-opacity="0.73"/>
<path d="M100.29 95.1838L99.8751 94.1927L98.9231 94.247L98.0916 95.3689L98.3839 96.3073L99.4549 96.2463L100.29 95.1838Z" fill="white"/>
<path d="M101.548 92.1274L99.8751 94.1927M99.8751 94.1927L100.29 95.1838L99.4549 96.2463L98.3839 96.3073L98.0916 95.3689L98.9231 94.247L99.8751 94.1927Z" stroke="#A6CADE" stroke-opacity="0.73"/>
<path d="M98.4067 93.1252L98.8892 92.1652L98.2282 91.4778L96.8353 91.577L96.3132 92.4098L97.0568 93.1831L98.4067 93.1252Z" fill="white"/>
<path d="M101.546 92.0907L98.8892 92.1652M98.8892 92.1652L98.4067 93.1252L97.0568 93.1831L96.3132 92.4098L96.8353 91.577L98.2282 91.4778L98.8892 92.1652Z" stroke="#A6CADE" stroke-opacity="0.73"/>
<path d="M136.89 91.4031L137.936 91.6492L138.451 90.8467L138.031 89.5149L137.099 89.2006L136.52 90.1036L136.89 91.4031Z" fill="white"/>
<path d="M138.626 94.2161L137.936 91.6492M137.936 91.6492L136.89 91.4031L136.52 90.1036L137.099 89.2006L138.031 89.5149L138.451 90.8467L137.936 91.6492Z" stroke="#A6CADE" stroke-opacity="0.73"/>
<path d="M140.033 91.2051L140.39 92.2183H141.344L142.238 91.1455L141.999 90.192H140.927L140.033 91.2051Z" fill="white"/>
<path d="M138.602 94.185L140.39 92.2183M140.39 92.2183L140.033 91.2051L140.927 90.192H141.999L142.238 91.1455L141.344 92.2183H140.39Z" stroke="#A6CADE" stroke-opacity="0.73"/>
<path d="M141.795 93.3677L141.259 94.2987L141.88 95.0225L143.276 95.0028L143.845 94.201L143.146 93.3867L141.795 93.3677Z" fill="white"/>
<path d="M138.602 94.2218L141.259 94.2987M141.259 94.2987L141.795 93.3677L143.146 93.3867L143.845 94.201L143.276 95.0028L141.88 95.0225L141.259 94.2987Z" stroke="#A6CADE" stroke-opacity="0.73"/>
<path d="M140.416 96.8073L139.358 96.6211L138.89 97.4517L139.385 98.7574L140.333 99.0181L140.859 98.0837L140.416 96.8073Z" fill="white"/>
<path d="M138.523 94.0976L139.358 96.6211M139.358 96.6211L140.416 96.8073L140.859 98.0837L140.333 99.0181L139.385 98.7574L138.89 97.4517L139.358 96.6211Z" stroke="#A6CADE" stroke-opacity="0.73"/>
<path d="M137.29 97.1838L136.875 96.1927L135.923 96.247L135.092 97.3689L135.384 98.3073L136.455 98.2463L137.29 97.1838Z" fill="white"/>
<path d="M138.548 94.1274L136.875 96.1927M136.875 96.1927L137.29 97.1838L136.455 98.2463L135.384 98.3073L135.092 97.3689L135.923 96.247L136.875 96.1927Z" stroke="#A6CADE" stroke-opacity="0.73"/>
<path d="M135.407 95.1252L135.889 94.1652L135.228 93.4778L133.835 93.577L133.313 94.4098L134.057 95.1831L135.407 95.1252Z" fill="white"/>
<path d="M138.546 94.0907L135.889 94.1652M135.889 94.1652L135.407 95.1252L134.057 95.1831L133.313 94.4098L133.835 93.577L135.228 93.4778L135.889 94.1652Z" stroke="#A6CADE" stroke-opacity="0.73"/>
<path d="M116.89 110.403L117.936 110.649L118.451 109.847L118.031 108.515L117.099 108.201L116.52 109.104L116.89 110.403Z" fill="white"/>
<path d="M118.626 113.216L117.936 110.649M117.936 110.649L116.89 110.403L116.52 109.104L117.099 108.201L118.031 108.515L118.451 109.847L117.936 110.649Z" stroke="#A6CADE" stroke-opacity="0.73"/>
<path d="M120.033 110.205L120.39 111.218H121.344L122.238 110.146L121.999 109.192H120.927L120.033 110.205Z" fill="white"/>
<path d="M118.602 113.185L120.39 111.218M120.39 111.218L120.033 110.205L120.927 109.192H121.999L122.238 110.146L121.344 111.218H120.39Z" stroke="#A6CADE" stroke-opacity="0.73"/>
<path d="M121.795 112.368L121.259 113.299L121.88 114.023L123.276 114.003L123.845 113.201L123.146 112.387L121.795 112.368Z" fill="white"/>
<path d="M118.602 113.222L121.259 113.299M121.259 113.299L121.795 112.368L123.146 112.387L123.845 113.201L123.276 114.003L121.88 114.023L121.259 113.299Z" stroke="#A6CADE" stroke-opacity="0.73"/>
<path d="M120.416 115.807L119.358 115.621L118.89 116.452L119.385 117.757L120.333 118.018L120.859 117.084L120.416 115.807Z" fill="white"/>
<path d="M118.523 113.098L119.358 115.621M119.358 115.621L120.416 115.807L120.859 117.084L120.333 118.018L119.385 117.757L118.89 116.452L119.358 115.621Z" stroke="#A6CADE" stroke-opacity="0.73"/>
<path d="M117.29 116.184L116.875 115.193L115.923 115.247L115.092 116.369L115.384 117.307L116.455 117.246L117.29 116.184Z" fill="white"/>
<path d="M118.548 113.127L116.875 115.193M116.875 115.193L117.29 116.184L116.455 117.246L115.384 117.307L115.092 116.369L115.923 115.247L116.875 115.193Z" stroke="#A6CADE" stroke-opacity="0.73"/>
<path d="M115.407 114.125L115.889 113.165L115.228 112.478L113.835 112.577L113.313 113.41L114.057 114.183L115.407 114.125Z" fill="white"/>
<path d="M118.546 113.091L115.889 113.165M115.889 113.165L115.407 114.125L114.057 114.183L113.313 113.41L113.835 112.577L115.228 112.478L115.889 113.165Z" stroke="#A6CADE" stroke-opacity="0.73"/>
<path d="M81.8899 110.403L82.9357 110.649L83.4507 109.847L83.0305 108.515L82.0992 108.201L81.5199 109.104L81.8899 110.403Z" fill="white"/>
<path d="M83.6256 113.216L82.9357 110.649M82.9357 110.649L81.8899 110.403L81.5199 109.104L82.0992 108.201L83.0305 108.515L83.4507 109.847L82.9357 110.649Z" stroke="#A6CADE" stroke-opacity="0.73"/>
<path d="M85.0326 110.205L85.3902 111.218H86.3438L87.2377 110.146L86.9993 109.192H85.9266L85.0326 110.205Z" fill="white"/>
<path d="M83.6022 113.185L85.3902 111.218M85.3902 111.218L85.0326 110.205L85.9266 109.192H86.9993L87.2377 110.146L86.3438 111.218H85.3902Z" stroke="#A6CADE" stroke-opacity="0.73"/>
<path d="M86.7954 112.368L86.2591 113.299L86.8799 114.023L88.2762 114.003L88.8448 113.201L88.1465 112.387L86.7954 112.368Z" fill="white"/>
<path d="M83.6023 113.222L86.2591 113.299M86.2591 113.299L86.7954 112.368L88.1465 112.387L88.8448 113.201L88.2762 114.003L86.8799 114.023L86.2591 113.299Z" stroke="#A6CADE" stroke-opacity="0.73"/>
<path d="M85.4161 115.807L84.358 115.621L83.8895 116.452L84.3848 117.757L85.3325 118.018L85.8595 117.084L85.4161 115.807Z" fill="white"/>
<path d="M83.5231 113.098L84.358 115.621M84.358 115.621L85.4161 115.807L85.8595 117.084L85.3325 118.018L84.3848 117.757L83.8895 116.452L84.358 115.621Z" stroke="#A6CADE" stroke-opacity="0.73"/>
<path d="M82.2898 116.184L81.8751 115.193L80.9231 115.247L80.0916 116.369L80.3839 117.307L81.4549 117.246L82.2898 116.184Z" fill="white"/>
<path d="M83.5482 113.127L81.8751 115.193M81.8751 115.193L82.2898 116.184L81.4549 117.246L80.3839 117.307L80.0916 116.369L80.9231 115.247L81.8751 115.193Z" stroke="#A6CADE" stroke-opacity="0.73"/>
<path d="M80.4067 114.125L80.8892 113.165L80.2282 112.478L78.8353 112.577L78.3132 113.41L79.0568 114.183L80.4067 114.125Z" fill="white"/>
<path d="M83.5461 113.091L80.8892 113.165M80.8892 113.165L80.4067 114.125L79.0568 114.183L78.3132 113.41L78.8353 112.577L80.2282 112.478L80.8892 113.165Z" stroke="#A6CADE" stroke-opacity="0.73"/>
<path d="M40.8899 119.403L41.9357 119.649L42.4507 118.847L42.0305 117.515L41.0992 117.201L40.5199 118.104L40.8899 119.403Z" fill="white"/>
<path d="M42.6256 122.216L41.9357 119.649M41.9357 119.649L40.8899 119.403L40.5199 118.104L41.0992 117.201L42.0305 117.515L42.4507 118.847L41.9357 119.649Z" stroke="#A6CADE" stroke-opacity="0.73"/>
<path d="M44.0326 119.205L44.3902 120.218H45.3438L46.2377 119.146L45.9993 118.192H44.9266L44.0326 119.205Z" fill="white"/>
<path d="M42.6022 122.185L44.3902 120.218M44.3902 120.218L44.0326 119.205L44.9266 118.192H45.9993L46.2377 119.146L45.3438 120.218H44.3902Z" stroke="#A6CADE" stroke-opacity="0.73"/>
<path d="M45.7954 121.368L45.2591 122.299L45.8799 123.023L47.2762 123.003L47.8448 122.201L47.1465 121.387L45.7954 121.368Z" fill="white"/>
<path d="M42.6023 122.222L45.2591 122.299M45.2591 122.299L45.7954 121.368L47.1465 121.387L47.8448 122.201L47.2762 123.003L45.8799 123.023L45.2591 122.299Z" stroke="#A6CADE" stroke-opacity="0.73"/>
<path d="M44.4161 124.807L43.358 124.621L42.8895 125.452L43.3848 126.757L44.3325 127.018L44.8595 126.084L44.4161 124.807Z" fill="white"/>
<path d="M42.5231 122.098L43.358 124.621M43.358 124.621L44.4161 124.807L44.8595 126.084L44.3325 127.018L43.3848 126.757L42.8895 125.452L43.358 124.621Z" stroke="#A6CADE" stroke-opacity="0.73"/>
<path d="M41.2898 125.184L40.8751 124.193L39.9231 124.247L39.0916 125.369L39.3839 126.307L40.4549 126.246L41.2898 125.184Z" fill="white"/>
<path d="M42.5482 122.127L40.8751 124.193M40.8751 124.193L41.2898 125.184L40.4549 126.246L39.3839 126.307L39.0916 125.369L39.9231 124.247L40.8751 124.193Z" stroke="#A6CADE" stroke-opacity="0.73"/>
<path d="M39.4067 123.125L39.8892 122.165L39.2282 121.478L37.8353 121.577L37.3132 122.41L38.0568 123.183L39.4067 123.125Z" fill="white"/>
<path d="M42.5461 122.091L39.8892 122.165M39.8892 122.165L39.4067 123.125L38.0568 123.183L37.3132 122.41L37.8353 121.577L39.2282 121.478L39.8892 122.165Z" stroke="#A6CADE" stroke-opacity="0.73"/>
<path d="M65.8899 141.403L66.9357 141.649L67.4507 140.847L67.0305 139.515L66.0992 139.201L65.5199 140.104L65.8899 141.403Z" fill="white"/>
<path d="M67.6256 144.216L66.9357 141.649M66.9357 141.649L65.8899 141.403L65.5199 140.104L66.0992 139.201L67.0305 139.515L67.4507 140.847L66.9357 141.649Z" stroke="#A6CADE" stroke-opacity="0.73"/>
<path d="M69.0326 141.205L69.3902 142.218H70.3438L71.2377 141.146L70.9993 140.192H69.9266L69.0326 141.205Z" fill="white"/>
<path d="M67.6022 144.185L69.3902 142.218M69.3902 142.218L69.0326 141.205L69.9266 140.192H70.9993L71.2377 141.146L70.3438 142.218H69.3902Z" stroke="#A6CADE" stroke-opacity="0.73"/>
<path d="M70.7954 143.368L70.2591 144.299L70.8799 145.023L72.2762 145.003L72.8448 144.201L72.1465 143.387L70.7954 143.368Z" fill="white"/>
<path d="M67.6023 144.222L70.2591 144.299M70.2591 144.299L70.7954 143.368L72.1465 143.387L72.8448 144.201L72.2762 145.003L70.8799 145.023L70.2591 144.299Z" stroke="#A6CADE" stroke-opacity="0.73"/>
<path d="M69.4161 146.807L68.358 146.621L67.8895 147.452L68.3848 148.757L69.3325 149.018L69.8595 148.084L69.4161 146.807Z" fill="white"/>
<path d="M67.5231 144.098L68.358 146.621M68.358 146.621L69.4161 146.807L69.8595 148.084L69.3325 149.018L68.3848 148.757L67.8895 147.452L68.358 146.621Z" stroke="#A6CADE" stroke-opacity="0.73"/>
<path d="M66.2898 147.184L65.8751 146.193L64.9231 146.247L64.0916 147.369L64.3839 148.307L65.4549 148.246L66.2898 147.184Z" fill="white"/>
<path d="M67.5482 144.127L65.8751 146.193M65.8751 146.193L66.2898 147.184L65.4549 148.246L64.3839 148.307L64.0916 147.369L64.9231 146.247L65.8751 146.193Z" stroke="#A6CADE" stroke-opacity="0.73"/>
<path d="M64.4067 145.125L64.8892 144.165L64.2282 143.478L62.8353 143.577L62.3132 144.41L63.0568 145.183L64.4067 145.125Z" fill="white"/>
<path d="M67.5461 144.091L64.8892 144.165M64.8892 144.165L64.4067 145.125L63.0568 145.183L62.3132 144.41L62.8353 143.577L64.2282 143.478L64.8892 144.165Z" stroke="#A6CADE" stroke-opacity="0.73"/>
<g filter="url(#filter6_f_18_334)">
<ellipse cx="18.5" cy="5.5" rx="18.5" ry="5.5" transform="matrix(1 0 0 -1 116 93)" fill="#1765DB"/>
</g>
<defs>
<filter id="filter0_i_18_334" x="40.8513" y="26.2386" width="74.2142" height="57.4877" filterUnits="userSpaceOnUse" color-interpolation-filters="sRGB">
<feFlood flood-opacity="0" result="BackgroundImageFix"/>
<feBlend mode="normal" in="SourceGraphic" in2="BackgroundImageFix" result="shape"/>
<feColorMatrix in="SourceAlpha" type="matrix" values="0 0 0 0 0 0 0 0 0 0 0 0 0 0 0 0 0 0 127 0" result="hardAlpha"/>
<feOffset dy="4"/>
<feGaussianBlur stdDeviation="15"/>
<feComposite in2="hardAlpha" operator="arithmetic" k2="-1" k3="1"/>
<feColorMatrix type="matrix" values="0 0 0 0 1 0 0 0 0 1 0 0 0 0 1 0 0 0 1 0"/>
<feBlend mode="normal" in2="shape" result="effect1_innerShadow_18_334"/>
</filter>
<filter id="filter1_i_18_334" x="0" y="0.792603" width="74.2142" height="57.4877" filterUnits="userSpaceOnUse" color-interpolation-filters="sRGB">
<feFlood flood-opacity="0" result="BackgroundImageFix"/>
<feBlend mode="normal" in="SourceGraphic" in2="BackgroundImageFix" result="shape"/>
<feColorMatrix in="SourceAlpha" type="matrix" values="0 0 0 0 0 0 0 0 0 0 0 0 0 0 0 0 0 0 127 0" result="hardAlpha"/>
<feOffset dy="4"/>
<feGaussianBlur stdDeviation="15"/>
<feComposite in2="hardAlpha" operator="arithmetic" k2="-1" k3="1"/>
<feColorMatrix type="matrix" values="0 0 0 0 1 0 0 0 0 1 0 0 0 0 1 0 0 0 1 0"/>
<feBlend mode="normal" in2="shape" result="effect1_innerShadow_18_334"/>
</filter>
<filter id="filter2_i_18_334" x="95.0443" y="27.4899" width="74.1214" height="58.1878" filterUnits="userSpaceOnUse" color-interpolation-filters="sRGB">
<feFlood flood-opacity="0" result="BackgroundImageFix"/>
<feBlend mode="normal" in="SourceGraphic" in2="BackgroundImageFix" result="shape"/>
<feColorMatrix in="SourceAlpha" type="matrix" values="0 0 0 0 0 0 0 0 0 0 0 0 0 0 0 0 0 0 127 0" result="hardAlpha"/>
<feOffset dy="4"/>
<feGaussianBlur stdDeviation="15"/>
<feComposite in2="hardAlpha" operator="arithmetic" k2="-1" k3="1"/>
<feColorMatrix type="matrix" values="0 0 0 0 1 0 0 0 0 1 0 0 0 0 1 0 0 0 1 0"/>
<feBlend mode="normal" in2="shape" result="effect1_innerShadow_18_334"/>
</filter>
<filter id="filter3_f_18_334" x="46.7296" y="64.5008" width="64.3878" height="37.3688" filterUnits="userSpaceOnUse" color-interpolation-filters="sRGB">
<feFlood flood-opacity="0" result="BackgroundImageFix"/>
<feBlend mode="normal" in="SourceGraphic" in2="BackgroundImageFix" result="shape"/>
<feGaussianBlur stdDeviation="7.5" result="effect1_foregroundBlur_18_334"/>
</filter>
<filter id="filter4_f_18_334" x="4.06396" y="37.5376" width="64.3878" height="37.3688" filterUnits="userSpaceOnUse" color-interpolation-filters="sRGB">
<feFlood flood-opacity="0" result="BackgroundImageFix"/>
<feBlend mode="normal" in="SourceGraphic" in2="BackgroundImageFix" result="shape"/>
<feGaussianBlur stdDeviation="7.5" result="effect1_foregroundBlur_18_334"/>
</filter>
<filter id="filter5_f_18_334" x="75.2916" y="36.1406" width="114.388" height="87.3688" filterUnits="userSpaceOnUse" color-interpolation-filters="sRGB">
<feFlood flood-opacity="0" result="BackgroundImageFix"/>
<feBlend mode="normal" in="SourceGraphic" in2="BackgroundImageFix" result="shape"/>
<feGaussianBlur stdDeviation="20" result="effect1_foregroundBlur_18_334"/>
</filter>
<filter id="filter6_f_18_334" x="96" y="62" width="77" height="51" filterUnits="userSpaceOnUse" color-interpolation-filters="sRGB">
<feFlood flood-opacity="0" result="BackgroundImageFix"/>
<feBlend mode="normal" in="SourceGraphic" in2="BackgroundImageFix" result="shape"/>
<feGaussianBlur stdDeviation="10" result="effect1_foregroundBlur_18_334"/>
</filter>
<linearGradient id="paint0_linear_18_334" x1="68.7696" y1="33.1047" x2="93.3398" y2="121.285" gradientUnits="userSpaceOnUse">
<stop stop-color="white" stop-opacity="0.1"/>
<stop offset="1" stop-color="#94B8D1" stop-opacity="0.23"/>
</linearGradient>
<linearGradient id="paint1_linear_18_334" x1="27.9182" y1="7.65867" x2="52.4885" y2="95.8393" gradientUnits="userSpaceOnUse">
<stop stop-color="white" stop-opacity="0.1"/>
<stop offset="1" stop-color="#94B8D1" stop-opacity="0.23"/>
</linearGradient>
<linearGradient id="paint2_linear_18_334" x1="123.931" y1="34.0418" x2="145.427" y2="123.022" gradientUnits="userSpaceOnUse">
<stop stop-color="white" stop-opacity="0.1"/>
<stop offset="1" stop-color="#94B8D1" stop-opacity="0.23"/>
</linearGradient>
</defs>
</svg>
