<svg width="171" height="149" viewBox="0 0 171 149" fill="none" xmlns="http://www.w3.org/2000/svg">
<g filter="url(#filter0_i_18_186)">
<path fill-rule="evenodd" clip-rule="evenodd" d="M98.5017 78.9336H59.4343C59.4245 78.9337 59.4147 78.9337 59.4049 78.9337C59.3951 78.9337 59.3852 78.9337 59.3754 78.9336H57.2319V78.8078C48.009 77.7319 40.8513 69.8919 40.8513 60.3801C40.8513 51.5497 47.0204 44.16 55.2838 42.2859C58.2959 32.5326 67.3832 25.446 78.1256 25.446C90.248 25.446 100.263 34.4702 101.818 46.1673C109.376 47.6969 115.066 54.377 115.066 62.3859C115.066 71.4692 107.747 78.8432 98.6849 78.9328V78.9336H98.5338C98.5285 78.9336 98.5231 78.9337 98.5178 78.9337C98.5124 78.9337 98.507 78.9336 98.5017 78.9336Z" fill="url(#paint0_linear_18_186)"/>
</g>
<g filter="url(#filter1_i_18_186)">
<path fill-rule="evenodd" clip-rule="evenodd" d="M57.6503 53.4877H18.583C18.5732 53.4877 18.5634 53.4877 18.5535 53.4877C18.5437 53.4877 18.5339 53.4877 18.5241 53.4877H16.3806V53.3618C7.15763 52.2859 0 44.4459 0 34.9341C0 26.1037 6.16902 18.7141 14.4325 16.8399C17.4446 7.08661 26.5318 0 37.2742 0C49.3966 0 59.4113 9.02425 60.9667 20.7213C68.5245 22.2509 74.2142 28.931 74.2142 36.9399C74.2142 46.0232 66.8956 53.3972 57.8335 53.4868V53.4877H57.6825C57.6771 53.4877 57.6718 53.4877 57.6664 53.4877C57.6611 53.4877 57.6557 53.4877 57.6503 53.4877Z" fill="url(#paint1_linear_18_186)"/>
</g>
<g filter="url(#filter2_i_18_186)">
<path fill-rule="evenodd" clip-rule="evenodd" d="M152.021 80.8742L112.984 79.5189C112.974 79.5185 112.964 79.5182 112.954 79.5179C112.945 79.5175 112.935 79.5172 112.925 79.5168L110.783 79.4425L110.787 79.3167C101.607 77.9214 94.7257 69.8378 95.0557 60.3318C95.3621 51.5066 101.784 44.3355 110.107 42.7492C113.456 33.1063 122.784 26.3392 133.52 26.712C145.635 27.1326 155.33 36.4989 156.479 48.2429C163.979 50.0338 169.433 56.9072 169.156 64.9113C168.84 73.9892 161.27 81.1048 152.211 80.8799L152.211 80.8808L152.066 80.8757C152.059 80.8755 152.051 80.8752 152.044 80.875C152.036 80.8747 152.029 80.8744 152.021 80.8742Z" fill="url(#paint2_linear_18_186)"/>
</g>
<g filter="url(#filter3_f_18_186)">
<ellipse cx="78.9235" cy="82.3926" rx="17.1939" ry="3.6844" fill="#1765DB"/>
</g>
<g filter="url(#filter4_f_18_186)">
<ellipse cx="36.2578" cy="55.4295" rx="17.1939" ry="3.6844" fill="#1765DB"/>
</g>
<g filter="url(#filter5_f_18_186)">
<ellipse cx="132.485" cy="79.0324" rx="17.1939" ry="3.6844" fill="#1765DB"/>
</g>
<path d="M29.8899 76.4031L30.9357 76.6493L31.4506 75.8467L31.0305 74.5149L30.0992 74.2007L29.5199 75.1036L29.8899 76.4031Z" fill="white"/>
<path d="M31.6256 79.2162L30.9357 76.6493M30.9357 76.6493L29.8899 76.4031L29.5199 75.1036L30.0992 74.2007L31.0305 74.5149L31.4506 75.8467L30.9357 76.6493Z" stroke="#A6CADE" stroke-opacity="0.73"/>
<path d="M33.0326 76.2051L33.3902 77.2183H34.3437L35.2377 76.1455L34.9993 75.192H33.9266L33.0326 76.2051Z" fill="white"/>
<path d="M31.6022 79.185L33.3902 77.2183M33.3902 77.2183L33.0326 76.2051L33.9266 75.192H34.9993L35.2377 76.1455L34.3437 77.2183H33.3902Z" stroke="#A6CADE" stroke-opacity="0.73"/>
<path d="M34.7954 78.3676L34.2591 79.2986L34.8799 80.0225L36.2761 80.0027L36.8448 79.201L36.1464 78.3867L34.7954 78.3676Z" fill="white"/>
<path d="M31.6022 79.2218L34.2591 79.2986M34.2591 79.2986L34.7954 78.3676L36.1464 78.3867L36.8448 79.201L36.2761 80.0027L34.8799 80.0225L34.2591 79.2986Z" stroke="#A6CADE" stroke-opacity="0.73"/>
<path d="M33.4161 81.8073L32.3579 81.6211L31.8895 82.4517L32.3848 83.7574L33.3325 84.0181L33.8595 83.0837L33.4161 81.8073Z" fill="white"/>
<path d="M31.5231 79.0977L32.3579 81.6211M32.3579 81.6211L33.4161 81.8073L33.8595 83.0837L33.3325 84.0181L32.3848 83.7574L31.8895 82.4517L32.3579 81.6211Z" stroke="#A6CADE" stroke-opacity="0.73"/>
<path d="M30.2898 82.1838L29.8751 81.1927L28.923 81.2469L28.0916 82.3689L28.3839 83.3073L29.4549 83.2463L30.2898 82.1838Z" fill="white"/>
<path d="M31.5482 79.1273L29.8751 81.1927M29.8751 81.1927L30.2898 82.1838L29.4549 83.2463L28.3839 83.3073L28.0916 82.3689L28.923 81.2469L29.8751 81.1927Z" stroke="#A6CADE" stroke-opacity="0.73"/>
<path d="M28.4067 80.1252L28.8892 79.1652L28.2282 78.4778L26.8353 78.577L26.3132 79.4098L27.0568 80.1831L28.4067 80.1252Z" fill="white"/>
<path d="M31.5461 79.0907L28.8892 79.1652M28.8892 79.1652L28.4067 80.1252L27.0568 80.1831L26.3132 79.4098L26.8353 78.577L28.2282 78.4778L28.8892 79.1652Z" stroke="#A6CADE" stroke-opacity="0.73"/>
<path d="M56.8899 86.4031L57.9357 86.6493L58.4506 85.8467L58.0305 84.5149L57.0992 84.2007L56.5199 85.1036L56.8899 86.4031Z" fill="white"/>
<path d="M58.6256 89.2162L57.9357 86.6493M57.9357 86.6493L56.8899 86.4031L56.5199 85.1036L57.0992 84.2007L58.0305 84.5149L58.4506 85.8467L57.9357 86.6493Z" stroke="#A6CADE" stroke-opacity="0.73"/>
<path d="M60.0326 86.2051L60.3902 87.2183H61.3437L62.2377 86.1455L61.9993 85.192H60.9266L60.0326 86.2051Z" fill="white"/>
<path d="M58.6022 89.185L60.3902 87.2183M60.3902 87.2183L60.0326 86.2051L60.9266 85.192H61.9993L62.2377 86.1455L61.3437 87.2183H60.3902Z" stroke="#A6CADE" stroke-opacity="0.73"/>
<path d="M61.7954 88.3676L61.2591 89.2986L61.8799 90.0225L63.2761 90.0027L63.8448 89.201L63.1464 88.3867L61.7954 88.3676Z" fill="white"/>
<path d="M58.6022 89.2218L61.2591 89.2986M61.2591 89.2986L61.7954 88.3676L63.1464 88.3867L63.8448 89.201L63.2761 90.0027L61.8799 90.0225L61.2591 89.2986Z" stroke="#A6CADE" stroke-opacity="0.73"/>
<path d="M60.4161 91.8073L59.3579 91.6211L58.8895 92.4517L59.3848 93.7574L60.3325 94.0181L60.8595 93.0837L60.4161 91.8073Z" fill="white"/>
<path d="M58.5231 89.0977L59.3579 91.6211M59.3579 91.6211L60.4161 91.8073L60.8595 93.0837L60.3325 94.0181L59.3848 93.7574L58.8895 92.4517L59.3579 91.6211Z" stroke="#A6CADE" stroke-opacity="0.73"/>
<path d="M57.2898 92.1838L56.8751 91.1927L55.9231 91.2469L55.0916 92.3689L55.3839 93.3073L56.4549 93.2463L57.2898 92.1838Z" fill="white"/>
<path d="M58.5482 89.1273L56.8751 91.1927M56.8751 91.1927L57.2898 92.1838L56.4549 93.2463L55.3839 93.3073L55.0916 92.3689L55.9231 91.2469L56.8751 91.1927Z" stroke="#A6CADE" stroke-opacity="0.73"/>
<path d="M55.4067 90.1252L55.8892 89.1652L55.2282 88.4778L53.8353 88.577L53.3132 89.4098L54.0568 90.1831L55.4067 90.1252Z" fill="white"/>
<path d="M58.5461 89.0907L55.8892 89.1652M55.8892 89.1652L55.4067 90.1252L54.0568 90.1831L53.3132 89.4098L53.8353 88.577L55.2282 88.4778L55.8892 89.1652Z" stroke="#A6CADE" stroke-opacity="0.73"/>
<path d="M99.8899 88.4031L100.936 88.6493L101.451 87.8467L101.031 86.5149L100.099 86.2007L99.5199 87.1036L99.8899 88.4031Z" fill="white"/>
<path d="M101.626 91.2162L100.936 88.6493M100.936 88.6493L99.8899 88.4031L99.5199 87.1036L100.099 86.2007L101.031 86.5149L101.451 87.8467L100.936 88.6493Z" stroke="#A6CADE" stroke-opacity="0.73"/>
<path d="M103.033 88.2051L103.39 89.2183H104.344L105.238 88.1455L104.999 87.192H103.927L103.033 88.2051Z" fill="white"/>
<path d="M101.602 91.185L103.39 89.2183M103.39 89.2183L103.033 88.2051L103.927 87.192H104.999L105.238 88.1455L104.344 89.2183H103.39Z" stroke="#A6CADE" stroke-opacity="0.73"/>
<path d="M104.795 90.3676L104.259 91.2986L104.88 92.0225L106.276 92.0027L106.845 91.201L106.146 90.3867L104.795 90.3676Z" fill="white"/>
<path d="M101.602 91.2218L104.259 91.2986M104.259 91.2986L104.795 90.3676L106.146 90.3867L106.845 91.201L106.276 92.0027L104.88 92.0225L104.259 91.2986Z" stroke="#A6CADE" stroke-opacity="0.73"/>
<path d="M103.416 93.8073L102.358 93.6211L101.89 94.4517L102.385 95.7574L103.333 96.0181L103.859 95.0837L103.416 93.8073Z" fill="white"/>
<path d="M101.523 91.0977L102.358 93.6211M102.358 93.6211L103.416 93.8073L103.859 95.0837L103.333 96.0181L102.385 95.7574L101.89 94.4517L102.358 93.6211Z" stroke="#A6CADE" stroke-opacity="0.73"/>
<path d="M100.29 94.1838L99.8751 93.1927L98.9231 93.2469L98.0916 94.3689L98.3839 95.3073L99.4549 95.2463L100.29 94.1838Z" fill="white"/>
<path d="M101.548 91.1273L99.8751 93.1927M99.8751 93.1927L100.29 94.1838L99.4549 95.2463L98.3839 95.3073L98.0916 94.3689L98.9231 93.2469L99.8751 93.1927Z" stroke="#A6CADE" stroke-opacity="0.73"/>
<path d="M98.4067 92.1252L98.8892 91.1652L98.2282 90.4778L96.8353 90.577L96.3132 91.4098L97.0568 92.1831L98.4067 92.1252Z" fill="white"/>
<path d="M101.546 91.0907L98.8892 91.1652M98.8892 91.1652L98.4067 92.1252L97.0568 92.1831L96.3132 91.4098L96.8353 90.577L98.2282 90.4778L98.8892 91.1652Z" stroke="#A6CADE" stroke-opacity="0.73"/>
<path d="M136.89 90.4031L137.936 90.6493L138.451 89.8467L138.031 88.5149L137.099 88.2007L136.52 89.1036L136.89 90.4031Z" fill="white"/>
<path d="M138.626 93.2162L137.936 90.6493M137.936 90.6493L136.89 90.4031L136.52 89.1036L137.099 88.2007L138.031 88.5149L138.451 89.8467L137.936 90.6493Z" stroke="#A6CADE" stroke-opacity="0.73"/>
<path d="M140.033 90.2051L140.39 91.2183H141.344L142.238 90.1455L141.999 89.192H140.927L140.033 90.2051Z" fill="white"/>
<path d="M138.602 93.185L140.39 91.2183M140.39 91.2183L140.033 90.2051L140.927 89.192H141.999L142.238 90.1455L141.344 91.2183H140.39Z" stroke="#A6CADE" stroke-opacity="0.73"/>
<path d="M141.795 92.3676L141.259 93.2986L141.88 94.0225L143.276 94.0027L143.845 93.201L143.146 92.3867L141.795 92.3676Z" fill="white"/>
<path d="M138.602 93.2218L141.259 93.2986M141.259 93.2986L141.795 92.3676L143.146 92.3867L143.845 93.201L143.276 94.0027L141.88 94.0225L141.259 93.2986Z" stroke="#A6CADE" stroke-opacity="0.73"/>
<path d="M140.416 95.8073L139.358 95.6211L138.89 96.4517L139.385 97.7574L140.333 98.0181L140.859 97.0837L140.416 95.8073Z" fill="white"/>
<path d="M138.523 93.0977L139.358 95.6211M139.358 95.6211L140.416 95.8073L140.859 97.0837L140.333 98.0181L139.385 97.7574L138.89 96.4517L139.358 95.6211Z" stroke="#A6CADE" stroke-opacity="0.73"/>
<path d="M137.29 96.1838L136.875 95.1927L135.923 95.2469L135.092 96.3689L135.384 97.3073L136.455 97.2463L137.29 96.1838Z" fill="white"/>
<path d="M138.548 93.1273L136.875 95.1927M136.875 95.1927L137.29 96.1838L136.455 97.2463L135.384 97.3073L135.092 96.3689L135.923 95.2469L136.875 95.1927Z" stroke="#A6CADE" stroke-opacity="0.73"/>
<path d="M135.407 94.1252L135.889 93.1652L135.228 92.4778L133.835 92.577L133.313 93.4098L134.057 94.1831L135.407 94.1252Z" fill="white"/>
<path d="M138.546 93.0907L135.889 93.1652M135.889 93.1652L135.407 94.1252L134.057 94.1831L133.313 93.4098L133.835 92.577L135.228 92.4778L135.889 93.1652Z" stroke="#A6CADE" stroke-opacity="0.73"/>
<path d="M116.89 109.403L117.936 109.649L118.451 108.847L118.031 107.515L117.099 107.201L116.52 108.104L116.89 109.403Z" fill="white"/>
<path d="M118.626 112.216L117.936 109.649M117.936 109.649L116.89 109.403L116.52 108.104L117.099 107.201L118.031 107.515L118.451 108.847L117.936 109.649Z" stroke="#A6CADE" stroke-opacity="0.73"/>
<path d="M120.033 109.205L120.39 110.218H121.344L122.238 109.146L121.999 108.192H120.927L120.033 109.205Z" fill="white"/>
<path d="M118.602 112.185L120.39 110.218M120.39 110.218L120.033 109.205L120.927 108.192H121.999L122.238 109.146L121.344 110.218H120.39Z" stroke="#A6CADE" stroke-opacity="0.73"/>
<path d="M121.795 111.368L121.259 112.299L121.88 113.022L123.276 113.003L123.845 112.201L123.146 111.387L121.795 111.368Z" fill="white"/>
<path d="M118.602 112.222L121.259 112.299M121.259 112.299L121.795 111.368L123.146 111.387L123.845 112.201L123.276 113.003L121.88 113.022L121.259 112.299Z" stroke="#A6CADE" stroke-opacity="0.73"/>
<path d="M120.416 114.807L119.358 114.621L118.89 115.452L119.385 116.757L120.333 117.018L120.859 116.084L120.416 114.807Z" fill="white"/>
<path d="M118.523 112.098L119.358 114.621M119.358 114.621L120.416 114.807L120.859 116.084L120.333 117.018L119.385 116.757L118.89 115.452L119.358 114.621Z" stroke="#A6CADE" stroke-opacity="0.73"/>
<path d="M117.29 115.184L116.875 114.193L115.923 114.247L115.092 115.369L115.384 116.307L116.455 116.246L117.29 115.184Z" fill="white"/>
<path d="M118.548 112.127L116.875 114.193M116.875 114.193L117.29 115.184L116.455 116.246L115.384 116.307L115.092 115.369L115.923 114.247L116.875 114.193Z" stroke="#A6CADE" stroke-opacity="0.73"/>
<path d="M115.407 113.125L115.889 112.165L115.228 111.478L113.835 111.577L113.313 112.41L114.057 113.183L115.407 113.125Z" fill="white"/>
<path d="M118.546 112.091L115.889 112.165M115.889 112.165L115.407 113.125L114.057 113.183L113.313 112.41L113.835 111.577L115.228 111.478L115.889 112.165Z" stroke="#A6CADE" stroke-opacity="0.73"/>
<path d="M81.8899 109.403L82.9357 109.649L83.4506 108.847L83.0305 107.515L82.0992 107.201L81.5199 108.104L81.8899 109.403Z" fill="white"/>
<path d="M83.6256 112.216L82.9357 109.649M82.9357 109.649L81.8899 109.403L81.5199 108.104L82.0992 107.201L83.0305 107.515L83.4506 108.847L82.9357 109.649Z" stroke="#A6CADE" stroke-opacity="0.73"/>
<path d="M85.0326 109.205L85.3902 110.218H86.3437L87.2377 109.146L86.9993 108.192H85.9266L85.0326 109.205Z" fill="white"/>
<path d="M83.6022 112.185L85.3902 110.218M85.3902 110.218L85.0326 109.205L85.9266 108.192H86.9993L87.2377 109.146L86.3437 110.218H85.3902Z" stroke="#A6CADE" stroke-opacity="0.73"/>
<path d="M86.7954 111.368L86.2591 112.299L86.8799 113.022L88.2761 113.003L88.8448 112.201L88.1464 111.387L86.7954 111.368Z" fill="white"/>
<path d="M83.6022 112.222L86.2591 112.299M86.2591 112.299L86.7954 111.368L88.1464 111.387L88.8448 112.201L88.2761 113.003L86.8799 113.022L86.2591 112.299Z" stroke="#A6CADE" stroke-opacity="0.73"/>
<path d="M85.4161 114.807L84.3579 114.621L83.8895 115.452L84.3848 116.757L85.3325 117.018L85.8595 116.084L85.4161 114.807Z" fill="white"/>
<path d="M83.5231 112.098L84.3579 114.621M84.3579 114.621L85.4161 114.807L85.8595 116.084L85.3325 117.018L84.3848 116.757L83.8895 115.452L84.3579 114.621Z" stroke="#A6CADE" stroke-opacity="0.73"/>
<path d="M82.2898 115.184L81.8751 114.193L80.9231 114.247L80.0916 115.369L80.3839 116.307L81.4549 116.246L82.2898 115.184Z" fill="white"/>
<path d="M83.5482 112.127L81.8751 114.193M81.8751 114.193L82.2898 115.184L81.4549 116.246L80.3839 116.307L80.0916 115.369L80.9231 114.247L81.8751 114.193Z" stroke="#A6CADE" stroke-opacity="0.73"/>
<path d="M80.4067 113.125L80.8892 112.165L80.2282 111.478L78.8353 111.577L78.3132 112.41L79.0568 113.183L80.4067 113.125Z" fill="white"/>
<path d="M83.5461 112.091L80.8892 112.165M80.8892 112.165L80.4067 113.125L79.0568 113.183L78.3132 112.41L78.8353 111.577L80.2282 111.478L80.8892 112.165Z" stroke="#A6CADE" stroke-opacity="0.73"/>
<path d="M40.8899 118.403L41.9357 118.649L42.4506 117.847L42.0305 116.515L41.0992 116.201L40.5199 117.104L40.8899 118.403Z" fill="white"/>
<path d="M42.6256 121.216L41.9357 118.649M41.9357 118.649L40.8899 118.403L40.5199 117.104L41.0992 116.201L42.0305 116.515L42.4506 117.847L41.9357 118.649Z" stroke="#A6CADE" stroke-opacity="0.73"/>
<path d="M44.0326 118.205L44.3902 119.218H45.3437L46.2377 118.146L45.9993 117.192H44.9266L44.0326 118.205Z" fill="white"/>
<path d="M42.6022 121.185L44.3902 119.218M44.3902 119.218L44.0326 118.205L44.9266 117.192H45.9993L46.2377 118.146L45.3437 119.218H44.3902Z" stroke="#A6CADE" stroke-opacity="0.73"/>
<path d="M45.7954 120.368L45.2591 121.299L45.8799 122.022L47.2761 122.003L47.8448 121.201L47.1464 120.387L45.7954 120.368Z" fill="white"/>
<path d="M42.6022 121.222L45.2591 121.299M45.2591 121.299L45.7954 120.368L47.1464 120.387L47.8448 121.201L47.2761 122.003L45.8799 122.022L45.2591 121.299Z" stroke="#A6CADE" stroke-opacity="0.73"/>
<path d="M44.4161 123.807L43.3579 123.621L42.8895 124.452L43.3848 125.757L44.3325 126.018L44.8595 125.084L44.4161 123.807Z" fill="white"/>
<path d="M42.5231 121.098L43.3579 123.621M43.3579 123.621L44.4161 123.807L44.8595 125.084L44.3325 126.018L43.3848 125.757L42.8895 124.452L43.3579 123.621Z" stroke="#A6CADE" stroke-opacity="0.73"/>
<path d="M41.2898 124.184L40.8751 123.193L39.9231 123.247L39.0916 124.369L39.3839 125.307L40.4549 125.246L41.2898 124.184Z" fill="white"/>
<path d="M42.5482 121.127L40.8751 123.193M40.8751 123.193L41.2898 124.184L40.4549 125.246L39.3839 125.307L39.0916 124.369L39.9231 123.247L40.8751 123.193Z" stroke="#A6CADE" stroke-opacity="0.73"/>
<path d="M39.4067 122.125L39.8892 121.165L39.2282 120.478L37.8353 120.577L37.3132 121.41L38.0568 122.183L39.4067 122.125Z" fill="white"/>
<path d="M42.5461 121.091L39.8892 121.165M39.8892 121.165L39.4067 122.125L38.0568 122.183L37.3132 121.41L37.8353 120.577L39.2282 120.478L39.8892 121.165Z" stroke="#A6CADE" stroke-opacity="0.73"/>
<path d="M65.8899 140.403L66.9357 140.649L67.4506 139.847L67.0305 138.515L66.0992 138.201L65.5199 139.104L65.8899 140.403Z" fill="white"/>
<path d="M67.6256 143.216L66.9357 140.649M66.9357 140.649L65.8899 140.403L65.5199 139.104L66.0992 138.201L67.0305 138.515L67.4506 139.847L66.9357 140.649Z" stroke="#A6CADE" stroke-opacity="0.73"/>
<path d="M69.0326 140.205L69.3902 141.218H70.3437L71.2377 140.146L70.9993 139.192H69.9266L69.0326 140.205Z" fill="white"/>
<path d="M67.6022 143.185L69.3902 141.218M69.3902 141.218L69.0326 140.205L69.9266 139.192H70.9993L71.2377 140.146L70.3437 141.218H69.3902Z" stroke="#A6CADE" stroke-opacity="0.73"/>
<path d="M70.7954 142.368L70.2591 143.299L70.8799 144.022L72.2761 144.003L72.8448 143.201L72.1464 142.387L70.7954 142.368Z" fill="white"/>
<path d="M67.6022 143.222L70.2591 143.299M70.2591 143.299L70.7954 142.368L72.1464 142.387L72.8448 143.201L72.2761 144.003L70.8799 144.022L70.2591 143.299Z" stroke="#A6CADE" stroke-opacity="0.73"/>
<path d="M69.4161 145.807L68.3579 145.621L67.8895 146.452L68.3848 147.757L69.3325 148.018L69.8595 147.084L69.4161 145.807Z" fill="white"/>
<path d="M67.5231 143.098L68.3579 145.621M68.3579 145.621L69.4161 145.807L69.8595 147.084L69.3325 148.018L68.3848 147.757L67.8895 146.452L68.3579 145.621Z" stroke="#A6CADE" stroke-opacity="0.73"/>
<path d="M66.2898 146.184L65.8751 145.193L64.9231 145.247L64.0916 146.369L64.3839 147.307L65.4549 147.246L66.2898 146.184Z" fill="white"/>
<path d="M67.5482 143.127L65.8751 145.193M65.8751 145.193L66.2898 146.184L65.4549 147.246L64.3839 147.307L64.0916 146.369L64.9231 145.247L65.8751 145.193Z" stroke="#A6CADE" stroke-opacity="0.73"/>
<path d="M64.4067 144.125L64.8892 143.165L64.2282 142.478L62.8353 142.577L62.3132 143.41L63.0568 144.183L64.4067 144.125Z" fill="white"/>
<path d="M67.5461 143.091L64.8892 143.165M64.8892 143.165L64.4067 144.125L63.0568 144.183L62.3132 143.41L62.8353 142.577L64.2282 142.478L64.8892 143.165Z" stroke="#A6CADE" stroke-opacity="0.73"/>
<defs>
<filter id="filter0_i_18_186" x="40.8513" y="25.446" width="74.2142" height="57.4877" filterUnits="userSpaceOnUse" color-interpolation-filters="sRGB">
<feFlood flood-opacity="0" result="BackgroundImageFix"/>
<feBlend mode="normal" in="SourceGraphic" in2="BackgroundImageFix" result="shape"/>
<feColorMatrix in="SourceAlpha" type="matrix" values="0 0 0 0 0 0 0 0 0 0 0 0 0 0 0 0 0 0 127 0" result="hardAlpha"/>
<feOffset dy="4"/>
<feGaussianBlur stdDeviation="15"/>
<feComposite in2="hardAlpha" operator="arithmetic" k2="-1" k3="1"/>
<feColorMatrix type="matrix" values="0 0 0 0 1 0 0 0 0 1 0 0 0 0 1 0 0 0 1 0"/>
<feBlend mode="normal" in2="shape" result="effect1_innerShadow_18_186"/>
</filter>
<filter id="filter1_i_18_186" x="0" y="0" width="74.2142" height="57.4877" filterUnits="userSpaceOnUse" color-interpolation-filters="sRGB">
<feFlood flood-opacity="0" result="BackgroundImageFix"/>
<feBlend mode="normal" in="SourceGraphic" in2="BackgroundImageFix" result="shape"/>
<feColorMatrix in="SourceAlpha" type="matrix" values="0 0 0 0 0 0 0 0 0 0 0 0 0 0 0 0 0 0 127 0" result="hardAlpha"/>
<feOffset dy="4"/>
<feGaussianBlur stdDeviation="15"/>
<feComposite in2="hardAlpha" operator="arithmetic" k2="-1" k3="1"/>
<feColorMatrix type="matrix" values="0 0 0 0 1 0 0 0 0 1 0 0 0 0 1 0 0 0 1 0"/>
<feBlend mode="normal" in2="shape" result="effect1_innerShadow_18_186"/>
</filter>
<filter id="filter2_i_18_186" x="95.0443" y="26.6973" width="74.1214" height="58.1879" filterUnits="userSpaceOnUse" color-interpolation-filters="sRGB">
<feFlood flood-opacity="0" result="BackgroundImageFix"/>
<feBlend mode="normal" in="SourceGraphic" in2="BackgroundImageFix" result="shape"/>
<feColorMatrix in="SourceAlpha" type="matrix" values="0 0 0 0 0 0 0 0 0 0 0 0 0 0 0 0 0 0 127 0" result="hardAlpha"/>
<feOffset dy="4"/>
<feGaussianBlur stdDeviation="15"/>
<feComposite in2="hardAlpha" operator="arithmetic" k2="-1" k3="1"/>
<feColorMatrix type="matrix" values="0 0 0 0 1 0 0 0 0 1 0 0 0 0 1 0 0 0 1 0"/>
<feBlend mode="normal" in2="shape" result="effect1_innerShadow_18_186"/>
</filter>
<filter id="filter3_f_18_186" x="46.7296" y="63.7082" width="64.3878" height="37.3688" filterUnits="userSpaceOnUse" color-interpolation-filters="sRGB">
<feFlood flood-opacity="0" result="BackgroundImageFix"/>
<feBlend mode="normal" in="SourceGraphic" in2="BackgroundImageFix" result="shape"/>
<feGaussianBlur stdDeviation="7.5" result="effect1_foregroundBlur_18_186"/>
</filter>
<filter id="filter4_f_18_186" x="4.06396" y="36.7451" width="64.3877" height="37.3688" filterUnits="userSpaceOnUse" color-interpolation-filters="sRGB">
<feFlood flood-opacity="0" result="BackgroundImageFix"/>
<feBlend mode="normal" in="SourceGraphic" in2="BackgroundImageFix" result="shape"/>
<feGaussianBlur stdDeviation="7.5" result="effect1_foregroundBlur_18_186"/>
</filter>
<filter id="filter5_f_18_186" x="100.292" y="60.348" width="64.3878" height="37.3688" filterUnits="userSpaceOnUse" color-interpolation-filters="sRGB">
<feFlood flood-opacity="0" result="BackgroundImageFix"/>
<feBlend mode="normal" in="SourceGraphic" in2="BackgroundImageFix" result="shape"/>
<feGaussianBlur stdDeviation="7.5" result="effect1_foregroundBlur_18_186"/>
</filter>
<linearGradient id="paint0_linear_18_186" x1="68.7695" y1="32.312" x2="93.3398" y2="120.493" gradientUnits="userSpaceOnUse">
<stop stop-color="white" stop-opacity="0.1"/>
<stop offset="1" stop-color="#94B8D1" stop-opacity="0.23"/>
</linearGradient>
<linearGradient id="paint1_linear_18_186" x1="27.9182" y1="6.86606" x2="52.4885" y2="95.0467" gradientUnits="userSpaceOnUse">
<stop stop-color="white" stop-opacity="0.1"/>
<stop offset="1" stop-color="#94B8D1" stop-opacity="0.23"/>
</linearGradient>
<linearGradient id="paint2_linear_18_186" x1="123.931" y1="33.2493" x2="145.427" y2="122.229" gradientUnits="userSpaceOnUse">
<stop stop-color="white" stop-opacity="0.1"/>
<stop offset="1" stop-color="#94B8D1" stop-opacity="0.23"/>
</linearGradient>
</defs>
</svg>
