<svg width="244" height="146" viewBox="0 0 244 146" fill="none" xmlns="http://www.w3.org/2000/svg">
<g filter="url(#filter0_i_18_242)">
<path fill-rule="evenodd" clip-rule="evenodd" d="M108.302 80.5297H60.8434V80.3848C50.2338 79.1472 42 70.1284 42 59.1865C42 49.0284 49.0965 40.5277 58.6024 38.3718C62.0674 27.1521 72.521 19 84.8785 19C98.8235 19 110.344 29.3811 112.133 42.8368C120.827 44.5964 127.372 52.2809 127.372 61.494C127.372 71.943 118.954 80.4256 108.529 80.5288V80.5297H108.371C108.36 80.5297 108.348 80.5297 108.337 80.5297C108.325 80.5297 108.314 80.5297 108.302 80.5297Z" fill="url(#paint0_linear_18_242)"/>
</g>
<g filter="url(#filter1_i_18_242)">
<path fill-rule="evenodd" clip-rule="evenodd" d="M168.302 61.5297H120.843V61.3848C110.234 60.1472 102 51.1284 102 40.1865C102 30.0284 109.097 21.5277 118.602 19.3718C122.067 8.15208 132.521 0 144.878 0C158.824 0 170.344 10.3811 172.133 23.8368C180.827 25.5964 187.372 33.2809 187.372 42.494C187.372 52.943 178.954 61.4256 168.529 61.5288V61.5297H168.371C168.36 61.5297 168.348 61.5297 168.337 61.5297C168.325 61.5297 168.314 61.5297 168.302 61.5297Z" fill="url(#paint1_linear_18_242)"/>
</g>
<g filter="url(#filter2_i_18_242)">
<path fill-rule="evenodd" clip-rule="evenodd" d="M145.302 115.53H97.8434V115.385C87.2338 114.147 79 105.128 79 94.1865C79 84.0284 86.0965 75.5277 95.6024 73.3718C99.0674 62.1521 109.521 54 121.878 54C135.824 54 147.344 64.3811 149.133 77.8368C157.827 79.5964 164.372 87.2809 164.372 96.494C164.372 106.943 155.954 115.426 145.529 115.529V115.53H145.371C145.36 115.53 145.348 115.53 145.337 115.53C145.325 115.53 145.314 115.53 145.302 115.53Z" fill="url(#paint2_linear_18_242)"/>
</g>
<g filter="url(#filter3_i_18_242)">
<path fill-rule="evenodd" clip-rule="evenodd" d="M194.302 107.53H146.843V107.385C136.234 106.147 128 97.1284 128 86.1865C128 76.0284 135.097 67.5277 144.602 65.3718C148.067 54.1521 158.521 46 170.878 46C184.824 46 196.344 56.3811 198.133 69.8368C206.827 71.5964 213.372 79.2809 213.372 88.494C213.372 98.943 204.954 107.426 194.529 107.529V107.53H194.371C194.36 107.53 194.348 107.53 194.337 107.53C194.325 107.53 194.314 107.53 194.302 107.53Z" fill="url(#paint3_linear_18_242)"/>
</g>
<g filter="url(#filter4_f_18_242)">
<ellipse cx="122" cy="106.5" rx="92" ry="9.5" fill="#1765DB" fill-opacity="0.48"/>
</g>
<g filter="url(#filter5_d_18_242)">
<path d="M70.9441 90.2508C76.1285 90.2508 81.2038 90.2509 86.3019 89.5711C87.0894 89.4661 88.0235 89.0354 88.8371 88.8547C89.4753 88.7128 90.1301 88.6579 90.619 88.2668C91.1209 87.8653 90.7844 85.6325 90.7844 84.9601C90.7844 83.7163 90.688 81.8149 89.4617 81.0655C88.7904 80.6553 87.2169 80 86.4856 80C83.6924 80 83.1789 81.5242 83.1789 83.9681" stroke="black" stroke-opacity="0.48" stroke-width="3" stroke-linecap="round" shape-rendering="crispEdges"/>
</g>
<g filter="url(#filter6_d_18_242)">
<path d="M80.2029 96.5336C81.3594 96.5336 82.8038 96.8017 83.9138 96.4601C85.2244 96.0568 86.7769 95.6097 88.139 95.5416C89.3762 95.4797 90.3971 94.8802 91.6662 94.8802C93.3926 94.8802 94.9781 95.2109 96.7365 95.2109" stroke="black" stroke-opacity="0.48" stroke-width="3" stroke-linecap="round" shape-rendering="crispEdges"/>
</g>
<g filter="url(#filter7_d_18_242)">
<path d="M64 102.816C68.905 102.816 73.8099 102.816 78.7149 102.816C81.0331 102.816 82.8873 103.614 84.0056 105.627C85.286 107.932 82.4558 108.438 80.8643 108.438" stroke="black" stroke-opacity="0.48" stroke-width="3" stroke-linecap="round" shape-rendering="crispEdges"/>
</g>
<g filter="url(#filter8_d_18_242)">
<path d="M89.7923 102.486C94.0065 102.486 98.8014 103.183 102.946 102.412C105.319 101.971 107.364 101.163 109.816 101.163C112.555 101.163 116.577 101.35 116.577 105.113C116.577 108.237 113.456 107.446 111.286 107.446" stroke="black" stroke-opacity="0.48" stroke-width="3" stroke-linecap="round" shape-rendering="crispEdges"/>
</g>
<defs>
<filter id="filter0_i_18_242" x="42" y="19" width="85.3725" height="65.5297" filterUnits="userSpaceOnUse" color-interpolation-filters="sRGB">
<feFlood flood-opacity="0" result="BackgroundImageFix"/>
<feBlend mode="normal" in="SourceGraphic" in2="BackgroundImageFix" result="shape"/>
<feColorMatrix in="SourceAlpha" type="matrix" values="0 0 0 0 0 0 0 0 0 0 0 0 0 0 0 0 0 0 127 0" result="hardAlpha"/>
<feOffset dy="4"/>
<feGaussianBlur stdDeviation="15"/>
<feComposite in2="hardAlpha" operator="arithmetic" k2="-1" k3="1"/>
<feColorMatrix type="matrix" values="0 0 0 0 1 0 0 0 0 1 0 0 0 0 1 0 0 0 1 0"/>
<feBlend mode="normal" in2="shape" result="effect1_innerShadow_18_242"/>
</filter>
<filter id="filter1_i_18_242" x="102" y="0" width="85.3725" height="65.5297" filterUnits="userSpaceOnUse" color-interpolation-filters="sRGB">
<feFlood flood-opacity="0" result="BackgroundImageFix"/>
<feBlend mode="normal" in="SourceGraphic" in2="BackgroundImageFix" result="shape"/>
<feColorMatrix in="SourceAlpha" type="matrix" values="0 0 0 0 0 0 0 0 0 0 0 0 0 0 0 0 0 0 127 0" result="hardAlpha"/>
<feOffset dy="4"/>
<feGaussianBlur stdDeviation="15"/>
<feComposite in2="hardAlpha" operator="arithmetic" k2="-1" k3="1"/>
<feColorMatrix type="matrix" values="0 0 0 0 1 0 0 0 0 1 0 0 0 0 1 0 0 0 1 0"/>
<feBlend mode="normal" in2="shape" result="effect1_innerShadow_18_242"/>
</filter>
<filter id="filter2_i_18_242" x="79" y="54" width="85.3725" height="65.5297" filterUnits="userSpaceOnUse" color-interpolation-filters="sRGB">
<feFlood flood-opacity="0" result="BackgroundImageFix"/>
<feBlend mode="normal" in="SourceGraphic" in2="BackgroundImageFix" result="shape"/>
<feColorMatrix in="SourceAlpha" type="matrix" values="0 0 0 0 0 0 0 0 0 0 0 0 0 0 0 0 0 0 127 0" result="hardAlpha"/>
<feOffset dy="4"/>
<feGaussianBlur stdDeviation="15"/>
<feComposite in2="hardAlpha" operator="arithmetic" k2="-1" k3="1"/>
<feColorMatrix type="matrix" values="0 0 0 0 1 0 0 0 0 1 0 0 0 0 1 0 0 0 1 0"/>
<feBlend mode="normal" in2="shape" result="effect1_innerShadow_18_242"/>
</filter>
<filter id="filter3_i_18_242" x="128" y="46" width="85.3725" height="65.5297" filterUnits="userSpaceOnUse" color-interpolation-filters="sRGB">
<feFlood flood-opacity="0" result="BackgroundImageFix"/>
<feBlend mode="normal" in="SourceGraphic" in2="BackgroundImageFix" result="shape"/>
<feColorMatrix in="SourceAlpha" type="matrix" values="0 0 0 0 0 0 0 0 0 0 0 0 0 0 0 0 0 0 127 0" result="hardAlpha"/>
<feOffset dy="4"/>
<feGaussianBlur stdDeviation="15"/>
<feComposite in2="hardAlpha" operator="arithmetic" k2="-1" k3="1"/>
<feColorMatrix type="matrix" values="0 0 0 0 1 0 0 0 0 1 0 0 0 0 1 0 0 0 1 0"/>
<feBlend mode="normal" in2="shape" result="effect1_innerShadow_18_242"/>
</filter>
<filter id="filter4_f_18_242" x="0" y="67" width="244" height="79" filterUnits="userSpaceOnUse" color-interpolation-filters="sRGB">
<feFlood flood-opacity="0" result="BackgroundImageFix"/>
<feBlend mode="normal" in="SourceGraphic" in2="BackgroundImageFix" result="shape"/>
<feGaussianBlur stdDeviation="15" result="effect1_foregroundBlur_18_242"/>
</filter>
<filter id="filter5_d_18_242" x="59.4441" y="72.5" width="42.9508" height="33.2508" filterUnits="userSpaceOnUse" color-interpolation-filters="sRGB">
<feFlood flood-opacity="0" result="BackgroundImageFix"/>
<feColorMatrix in="SourceAlpha" type="matrix" values="0 0 0 0 0 0 0 0 0 0 0 0 0 0 0 0 0 0 127 0" result="hardAlpha"/>
<feOffset dy="4"/>
<feGaussianBlur stdDeviation="5"/>
<feComposite in2="hardAlpha" operator="out"/>
<feColorMatrix type="matrix" values="0 0 0 0 0.5875 0 0 0 0 0.5875 0 0 0 0 0.5875 0 0 0 1 0"/>
<feBlend mode="normal" in2="BackgroundImageFix" result="effect1_dropShadow_18_242"/>
<feBlend mode="normal" in="SourceGraphic" in2="effect1_dropShadow_18_242" result="shape"/>
</filter>
<filter id="filter6_d_18_242" x="68.7029" y="87.3802" width="39.5336" height="24.7536" filterUnits="userSpaceOnUse" color-interpolation-filters="sRGB">
<feFlood flood-opacity="0" result="BackgroundImageFix"/>
<feColorMatrix in="SourceAlpha" type="matrix" values="0 0 0 0 0 0 0 0 0 0 0 0 0 0 0 0 0 0 127 0" result="hardAlpha"/>
<feOffset dy="4"/>
<feGaussianBlur stdDeviation="5"/>
<feComposite in2="hardAlpha" operator="out"/>
<feColorMatrix type="matrix" values="0 0 0 0 0.5875 0 0 0 0 0.5875 0 0 0 0 0.5875 0 0 0 1 0"/>
<feBlend mode="normal" in2="BackgroundImageFix" result="effect1_dropShadow_18_242"/>
<feBlend mode="normal" in="SourceGraphic" in2="effect1_dropShadow_18_242" result="shape"/>
</filter>
<filter id="filter7_d_18_242" x="52.5" y="95.3163" width="43.3294" height="28.6214" filterUnits="userSpaceOnUse" color-interpolation-filters="sRGB">
<feFlood flood-opacity="0" result="BackgroundImageFix"/>
<feColorMatrix in="SourceAlpha" type="matrix" values="0 0 0 0 0 0 0 0 0 0 0 0 0 0 0 0 0 0 127 0" result="hardAlpha"/>
<feOffset dy="4"/>
<feGaussianBlur stdDeviation="5"/>
<feComposite in2="hardAlpha" operator="out"/>
<feColorMatrix type="matrix" values="0 0 0 0 0.5875 0 0 0 0 0.5875 0 0 0 0 0.5875 0 0 0 1 0"/>
<feBlend mode="normal" in2="BackgroundImageFix" result="effect1_dropShadow_18_242"/>
<feBlend mode="normal" in="SourceGraphic" in2="effect1_dropShadow_18_242" result="shape"/>
</filter>
<filter id="filter8_d_18_242" x="78.2923" y="93.6629" width="49.7844" height="29.3722" filterUnits="userSpaceOnUse" color-interpolation-filters="sRGB">
<feFlood flood-opacity="0" result="BackgroundImageFix"/>
<feColorMatrix in="SourceAlpha" type="matrix" values="0 0 0 0 0 0 0 0 0 0 0 0 0 0 0 0 0 0 127 0" result="hardAlpha"/>
<feOffset dy="4"/>
<feGaussianBlur stdDeviation="5"/>
<feComposite in2="hardAlpha" operator="out"/>
<feColorMatrix type="matrix" values="0 0 0 0 0.5875 0 0 0 0 0.5875 0 0 0 0 0.5875 0 0 0 1 0"/>
<feBlend mode="normal" in2="BackgroundImageFix" result="effect1_dropShadow_18_242"/>
<feBlend mode="normal" in="SourceGraphic" in2="effect1_dropShadow_18_242" result="shape"/>
</filter>
<linearGradient id="paint0_linear_18_242" x1="74.1158" y1="26.8984" x2="102.38" y2="128.337" gradientUnits="userSpaceOnUse">
<stop stop-color="white" stop-opacity="0.1"/>
<stop offset="1" stop-color="#94B8D1" stop-opacity="0.23"/>
</linearGradient>
<linearGradient id="paint1_linear_18_242" x1="134.116" y1="7.8984" x2="162.38" y2="109.337" gradientUnits="userSpaceOnUse">
<stop stop-color="white" stop-opacity="0.1"/>
<stop offset="1" stop-color="#94B8D1" stop-opacity="0.23"/>
</linearGradient>
<linearGradient id="paint2_linear_18_242" x1="111.116" y1="61.8984" x2="139.38" y2="163.337" gradientUnits="userSpaceOnUse">
<stop stop-color="white" stop-opacity="0.1"/>
<stop offset="1" stop-color="#94B8D1" stop-opacity="0.23"/>
</linearGradient>
<linearGradient id="paint3_linear_18_242" x1="160.116" y1="53.8984" x2="188.38" y2="155.337" gradientUnits="userSpaceOnUse">
<stop stop-color="white" stop-opacity="0.1"/>
<stop offset="1" stop-color="#94B8D1" stop-opacity="0.23"/>
</linearGradient>
</defs>
</svg>
