<svg width="244" height="146" viewBox="0 0 244 146" fill="none" xmlns="http://www.w3.org/2000/svg">
<g filter="url(#filter0_i_18_210)">
<path fill-rule="evenodd" clip-rule="evenodd" d="M96.3023 80.5297H48.8434V80.3848C38.2338 79.1472 30 70.1284 30 59.1865C30 49.0284 37.0965 40.5277 46.6024 38.3718C50.0674 27.1521 60.521 19 72.8785 19C86.8235 19 98.3439 29.3811 100.133 42.8368C108.827 44.5964 115.372 52.2809 115.372 61.494C115.372 71.943 106.954 80.4256 96.5289 80.5288V80.5297H96.3712C96.3597 80.5297 96.3482 80.5297 96.3367 80.5297C96.3253 80.5297 96.3138 80.5297 96.3023 80.5297Z" fill="url(#paint0_linear_18_210)"/>
</g>
<g filter="url(#filter1_i_18_210)">
<path fill-rule="evenodd" clip-rule="evenodd" d="M156.302 61.5297H108.843V61.3848C98.2338 60.1472 90 51.1284 90 40.1865C90 30.0284 97.0965 21.5277 106.602 19.3718C110.067 8.15208 120.521 0 132.878 0C146.824 0 158.344 10.3811 160.133 23.8368C168.827 25.5964 175.372 33.2809 175.372 42.494C175.372 52.943 166.954 61.4256 156.529 61.5288V61.5297H156.371C156.36 61.5297 156.348 61.5297 156.337 61.5297C156.325 61.5297 156.314 61.5297 156.302 61.5297Z" fill="url(#paint1_linear_18_210)"/>
</g>
<g filter="url(#filter2_i_18_210)">
<path fill-rule="evenodd" clip-rule="evenodd" d="M133.302 115.53H85.8434V115.385C75.2338 114.147 67 105.128 67 94.1865C67 84.0284 74.0965 75.5277 83.6024 73.3718C87.0674 62.1521 97.521 54 109.878 54C123.824 54 135.344 64.3811 137.133 77.8368C145.827 79.5964 152.372 87.2809 152.372 96.494C152.372 106.943 143.954 115.426 133.529 115.529V115.53H133.371C133.36 115.53 133.348 115.53 133.337 115.53C133.325 115.53 133.314 115.53 133.302 115.53Z" fill="url(#paint2_linear_18_210)"/>
</g>
<g filter="url(#filter3_i_18_210)">
<path fill-rule="evenodd" clip-rule="evenodd" d="M182.302 107.53H134.843V107.385C124.234 106.147 116 97.1284 116 86.1865C116 76.0284 123.097 67.5277 132.602 65.3718C136.067 54.1521 146.521 46 158.878 46C172.824 46 184.344 56.3811 186.133 69.8368C194.827 71.5964 201.372 79.2809 201.372 88.494C201.372 98.943 192.954 107.426 182.529 107.529V107.53H182.371C182.36 107.53 182.348 107.53 182.337 107.53C182.325 107.53 182.314 107.53 182.302 107.53Z" fill="url(#paint3_linear_18_210)"/>
</g>
<g filter="url(#filter4_f_18_210)">
<ellipse cx="122" cy="106.5" rx="92" ry="9.5" fill="#1765DB" fill-opacity="0.48"/>
</g>
<g filter="url(#filter5_d_18_210)">
<path d="M70.9441 90.2508C76.1285 90.2508 81.2038 90.2509 86.3019 89.5711C87.0894 89.4661 88.0235 89.0354 88.8371 88.8547C89.4753 88.7128 90.1301 88.6579 90.619 88.2668C91.1209 87.8653 90.7844 85.6325 90.7844 84.9601C90.7844 83.7163 90.688 81.8149 89.4617 81.0655C88.7904 80.6553 87.2169 80 86.4856 80C83.6924 80 83.1789 81.5242 83.1789 83.9681" stroke="black" stroke-opacity="0.48" stroke-width="3" stroke-linecap="round" shape-rendering="crispEdges"/>
</g>
<g filter="url(#filter6_d_18_210)">
<path d="M80.2029 96.5336C81.3594 96.5336 82.8038 96.8017 83.9138 96.4601C85.2244 96.0568 86.7769 95.6097 88.139 95.5416C89.3762 95.4797 90.3971 94.8802 91.6662 94.8802C93.3926 94.8802 94.9781 95.2109 96.7365 95.2109" stroke="black" stroke-opacity="0.48" stroke-width="3" stroke-linecap="round" shape-rendering="crispEdges"/>
</g>
<g filter="url(#filter7_d_18_210)">
<path d="M64 102.816C68.905 102.816 73.8099 102.816 78.7149 102.816C81.0331 102.816 82.8873 103.614 84.0056 105.627C85.286 107.932 82.4558 108.438 80.8643 108.438" stroke="black" stroke-opacity="0.48" stroke-width="3" stroke-linecap="round" shape-rendering="crispEdges"/>
</g>
<g filter="url(#filter8_d_18_210)">
<path d="M89.7923 102.486C94.0065 102.486 98.8014 103.183 102.946 102.412C105.319 101.971 107.364 101.163 109.816 101.163C112.555 101.163 116.577 101.35 116.577 105.113C116.577 108.237 113.456 107.446 111.286 107.446" stroke="black" stroke-opacity="0.48" stroke-width="3" stroke-linecap="round" shape-rendering="crispEdges"/>
</g>
<defs>
<filter id="filter0_i_18_210" x="30" y="19" width="85.3725" height="65.5297" filterUnits="userSpaceOnUse" color-interpolation-filters="sRGB">
<feFlood flood-opacity="0" result="BackgroundImageFix"/>
<feBlend mode="normal" in="SourceGraphic" in2="BackgroundImageFix" result="shape"/>
<feColorMatrix in="SourceAlpha" type="matrix" values="0 0 0 0 0 0 0 0 0 0 0 0 0 0 0 0 0 0 127 0" result="hardAlpha"/>
<feOffset dy="4"/>
<feGaussianBlur stdDeviation="15"/>
<feComposite in2="hardAlpha" operator="arithmetic" k2="-1" k3="1"/>
<feColorMatrix type="matrix" values="0 0 0 0 1 0 0 0 0 1 0 0 0 0 1 0 0 0 1 0"/>
<feBlend mode="normal" in2="shape" result="effect1_innerShadow_18_210"/>
</filter>
<filter id="filter1_i_18_210" x="90" y="0" width="85.3725" height="65.5297" filterUnits="userSpaceOnUse" color-interpolation-filters="sRGB">
<feFlood flood-opacity="0" result="BackgroundImageFix"/>
<feBlend mode="normal" in="SourceGraphic" in2="BackgroundImageFix" result="shape"/>
<feColorMatrix in="SourceAlpha" type="matrix" values="0 0 0 0 0 0 0 0 0 0 0 0 0 0 0 0 0 0 127 0" result="hardAlpha"/>
<feOffset dy="4"/>
<feGaussianBlur stdDeviation="15"/>
<feComposite in2="hardAlpha" operator="arithmetic" k2="-1" k3="1"/>
<feColorMatrix type="matrix" values="0 0 0 0 1 0 0 0 0 1 0 0 0 0 1 0 0 0 1 0"/>
<feBlend mode="normal" in2="shape" result="effect1_innerShadow_18_210"/>
</filter>
<filter id="filter2_i_18_210" x="67" y="54" width="85.3725" height="65.5297" filterUnits="userSpaceOnUse" color-interpolation-filters="sRGB">
<feFlood flood-opacity="0" result="BackgroundImageFix"/>
<feBlend mode="normal" in="SourceGraphic" in2="BackgroundImageFix" result="shape"/>
<feColorMatrix in="SourceAlpha" type="matrix" values="0 0 0 0 0 0 0 0 0 0 0 0 0 0 0 0 0 0 127 0" result="hardAlpha"/>
<feOffset dy="4"/>
<feGaussianBlur stdDeviation="15"/>
<feComposite in2="hardAlpha" operator="arithmetic" k2="-1" k3="1"/>
<feColorMatrix type="matrix" values="0 0 0 0 1 0 0 0 0 1 0 0 0 0 1 0 0 0 1 0"/>
<feBlend mode="normal" in2="shape" result="effect1_innerShadow_18_210"/>
</filter>
<filter id="filter3_i_18_210" x="116" y="46" width="85.3725" height="65.5297" filterUnits="userSpaceOnUse" color-interpolation-filters="sRGB">
<feFlood flood-opacity="0" result="BackgroundImageFix"/>
<feBlend mode="normal" in="SourceGraphic" in2="BackgroundImageFix" result="shape"/>
<feColorMatrix in="SourceAlpha" type="matrix" values="0 0 0 0 0 0 0 0 0 0 0 0 0 0 0 0 0 0 127 0" result="hardAlpha"/>
<feOffset dy="4"/>
<feGaussianBlur stdDeviation="15"/>
<feComposite in2="hardAlpha" operator="arithmetic" k2="-1" k3="1"/>
<feColorMatrix type="matrix" values="0 0 0 0 1 0 0 0 0 1 0 0 0 0 1 0 0 0 1 0"/>
<feBlend mode="normal" in2="shape" result="effect1_innerShadow_18_210"/>
</filter>
<filter id="filter4_f_18_210" x="0" y="67" width="244" height="79" filterUnits="userSpaceOnUse" color-interpolation-filters="sRGB">
<feFlood flood-opacity="0" result="BackgroundImageFix"/>
<feBlend mode="normal" in="SourceGraphic" in2="BackgroundImageFix" result="shape"/>
<feGaussianBlur stdDeviation="15" result="effect1_foregroundBlur_18_210"/>
</filter>
<filter id="filter5_d_18_210" x="59.4441" y="72.5" width="42.9508" height="33.2509" filterUnits="userSpaceOnUse" color-interpolation-filters="sRGB">
<feFlood flood-opacity="0" result="BackgroundImageFix"/>
<feColorMatrix in="SourceAlpha" type="matrix" values="0 0 0 0 0 0 0 0 0 0 0 0 0 0 0 0 0 0 127 0" result="hardAlpha"/>
<feOffset dy="4"/>
<feGaussianBlur stdDeviation="5"/>
<feComposite in2="hardAlpha" operator="out"/>
<feColorMatrix type="matrix" values="0 0 0 0 0.5875 0 0 0 0 0.5875 0 0 0 0 0.5875 0 0 0 1 0"/>
<feBlend mode="normal" in2="BackgroundImageFix" result="effect1_dropShadow_18_210"/>
<feBlend mode="normal" in="SourceGraphic" in2="effect1_dropShadow_18_210" result="shape"/>
</filter>
<filter id="filter6_d_18_210" x="68.7029" y="87.3802" width="39.5336" height="24.7535" filterUnits="userSpaceOnUse" color-interpolation-filters="sRGB">
<feFlood flood-opacity="0" result="BackgroundImageFix"/>
<feColorMatrix in="SourceAlpha" type="matrix" values="0 0 0 0 0 0 0 0 0 0 0 0 0 0 0 0 0 0 127 0" result="hardAlpha"/>
<feOffset dy="4"/>
<feGaussianBlur stdDeviation="5"/>
<feComposite in2="hardAlpha" operator="out"/>
<feColorMatrix type="matrix" values="0 0 0 0 0.5875 0 0 0 0 0.5875 0 0 0 0 0.5875 0 0 0 1 0"/>
<feBlend mode="normal" in2="BackgroundImageFix" result="effect1_dropShadow_18_210"/>
<feBlend mode="normal" in="SourceGraphic" in2="effect1_dropShadow_18_210" result="shape"/>
</filter>
<filter id="filter7_d_18_210" x="52.5" y="95.3163" width="43.3295" height="28.6215" filterUnits="userSpaceOnUse" color-interpolation-filters="sRGB">
<feFlood flood-opacity="0" result="BackgroundImageFix"/>
<feColorMatrix in="SourceAlpha" type="matrix" values="0 0 0 0 0 0 0 0 0 0 0 0 0 0 0 0 0 0 127 0" result="hardAlpha"/>
<feOffset dy="4"/>
<feGaussianBlur stdDeviation="5"/>
<feComposite in2="hardAlpha" operator="out"/>
<feColorMatrix type="matrix" values="0 0 0 0 0.5875 0 0 0 0 0.5875 0 0 0 0 0.5875 0 0 0 1 0"/>
<feBlend mode="normal" in2="BackgroundImageFix" result="effect1_dropShadow_18_210"/>
<feBlend mode="normal" in="SourceGraphic" in2="effect1_dropShadow_18_210" result="shape"/>
</filter>
<filter id="filter8_d_18_210" x="78.2923" y="93.663" width="49.7844" height="29.3722" filterUnits="userSpaceOnUse" color-interpolation-filters="sRGB">
<feFlood flood-opacity="0" result="BackgroundImageFix"/>
<feColorMatrix in="SourceAlpha" type="matrix" values="0 0 0 0 0 0 0 0 0 0 0 0 0 0 0 0 0 0 127 0" result="hardAlpha"/>
<feOffset dy="4"/>
<feGaussianBlur stdDeviation="5"/>
<feComposite in2="hardAlpha" operator="out"/>
<feColorMatrix type="matrix" values="0 0 0 0 0.5875 0 0 0 0 0.5875 0 0 0 0 0.5875 0 0 0 1 0"/>
<feBlend mode="normal" in2="BackgroundImageFix" result="effect1_dropShadow_18_210"/>
<feBlend mode="normal" in="SourceGraphic" in2="effect1_dropShadow_18_210" result="shape"/>
</filter>
<linearGradient id="paint0_linear_18_210" x1="62.1158" y1="26.8984" x2="90.3803" y2="128.337" gradientUnits="userSpaceOnUse">
<stop stop-color="white" stop-opacity="0.1"/>
<stop offset="1" stop-color="#94B8D1" stop-opacity="0.23"/>
</linearGradient>
<linearGradient id="paint1_linear_18_210" x1="122.116" y1="7.8984" x2="150.38" y2="109.337" gradientUnits="userSpaceOnUse">
<stop stop-color="white" stop-opacity="0.1"/>
<stop offset="1" stop-color="#94B8D1" stop-opacity="0.23"/>
</linearGradient>
<linearGradient id="paint2_linear_18_210" x1="99.1158" y1="61.8984" x2="127.38" y2="163.337" gradientUnits="userSpaceOnUse">
<stop stop-color="white" stop-opacity="0.1"/>
<stop offset="1" stop-color="#94B8D1" stop-opacity="0.23"/>
</linearGradient>
<linearGradient id="paint3_linear_18_210" x1="148.116" y1="53.8984" x2="176.38" y2="155.337" gradientUnits="userSpaceOnUse">
<stop stop-color="white" stop-opacity="0.1"/>
<stop offset="1" stop-color="#94B8D1" stop-opacity="0.23"/>
</linearGradient>
</defs>
</svg>
